<?xml version="1.0" encoding="UTF-8"?>
<svg version="1.1" xmlns="http://www.w3.org/2000/svg" width="500" height="500">
<path d="M0 0 C165 0 330 0 500 0 C500 165 500 330 500 500 C335 500 170 500 0 500 C0 335 0 170 0 0 Z " fill="#319E2F" transform="translate(0,0)"/>
<path d="M0 0 C0.70366699 0.00942627 1.40733398 0.01885254 2.13232422 0.02856445 C10.42161539 0.26976687 16.14319641 2.32116678 22.0625 8.375 C27.61580096 15.17003285 26.8750195 24.11578112 26.0625 32.375 C24.45732961 39.15660744 20.51889438 44.13969388 15.0625 48.375 C9.03540837 52.02006093 3.21691429 54.2801512 -3.9375 53.375 C-9.41883463 51.61477107 -13.48633806 48.99182765 -17.9375 45.375 C-18.38963867 46.14875977 -18.84177734 46.92251953 -19.30761719 47.71972656 C-29.71050227 65.51482903 -40.17569995 83.26534244 -50.890625 100.875 C-51.23825897 101.44661362 -51.58589294 102.01822723 -51.94406128 102.60716248 C-53.74874419 105.57438305 -55.55546782 108.54032563 -57.36572266 111.50415039 C-61.04848758 117.54447907 -64.67354479 123.6103189 -68.1953125 129.74609375 C-85.59631719 159.99099408 -85.59631719 159.99099408 -97.9375 164.375 C-102.89794494 165.18353067 -106.79900066 164.94424967 -111.3125 162.6875 C-122.54499256 152.79220893 -121.94227515 136.36093516 -123.4375 122.3125 C-123.65246718 120.34985021 -123.86821126 118.38728537 -124.0847168 116.42480469 C-124.51177485 112.54325853 -124.93452103 108.66128598 -125.35302734 104.77880859 C-125.86701252 100.01412929 -126.39243042 95.2508284 -126.92578125 90.48828125 C-127.60174198 84.45110696 -128.27254768 78.41339637 -128.9375 72.375 C-129.36417969 73.02082031 -129.79085937 73.66664063 -130.23046875 74.33203125 C-138.84628793 87.31793604 -147.68773506 100.15138981 -156.57421875 112.953125 C-158.92729669 116.35167537 -161.25504288 119.7673342 -163.58374023 123.18261719 C-168.47740324 130.35568747 -173.39252789 137.51325956 -178.375 144.625 C-179.08233276 145.64255371 -179.08233276 145.64255371 -179.80395508 146.68066406 C-191.0038445 162.59160235 -191.0038445 162.59160235 -199.9375 164.375 C-204.58830258 164.89081629 -207.99837452 164.83570307 -212.25 162.75 C-223.04304653 153.21195888 -223.07659682 136.73179424 -224.93359375 123.30859375 C-225.21052445 121.34626568 -225.48813086 119.38403286 -225.76637268 117.42189026 C-226.49591727 112.26578975 -227.21731109 107.10858341 -227.93664551 101.9510498 C-228.6574286 96.7903553 -229.38434866 91.63052779 -230.11132812 86.47070312 C-230.25266993 85.46644602 -230.39401173 84.46218891 -230.53963661 83.42749977 C-231.23867745 78.46383962 -231.94066352 73.50062207 -232.64828491 68.53817749 C-232.91901276 66.63857106 -233.18973432 64.73896374 -233.46044922 62.83935547 C-233.59033926 61.92915838 -233.7202293 61.0189613 -233.8540554 60.08118248 C-234.52371042 55.36778416 -235.17072044 50.65277403 -235.77711773 45.93081951 C-236.1609485 42.9636206 -236.56977981 39.9998205 -236.97265625 37.03515625 C-237.08798203 36.04857529 -237.2033078 35.06199432 -237.3221283 34.04551697 C-238.4538168 26.00425612 -241.81953054 20.22184168 -247.8125 14.75 C-249.9375 12.375 -249.9375 12.375 -250.5 8.8125 C-249.83656181 4.75815551 -249.17313422 3.81677563 -245.9375 1.375 C-242.71876526 0.87379456 -242.71876526 0.87379456 -238.86157227 0.87329102 C-238.15700897 0.86788803 -237.45244568 0.86248505 -236.72653198 0.85691833 C-234.40189352 0.84443056 -232.07849369 0.86092251 -229.75390625 0.87890625 C-228.13492264 0.87875124 -226.51593865 0.877262 -224.8969574 0.87449646 C-221.50494976 0.8731124 -218.11336491 0.88566996 -214.72143555 0.90844727 C-210.37906062 0.93680953 -206.03738931 0.93410098 -201.6949625 0.92135715 C-198.35172038 0.91439253 -195.00864008 0.92219853 -191.66541862 0.93461418 C-190.0646826 0.93912268 -188.46392917 0.93947073 -186.8631916 0.93554878 C-184.62270817 0.93262937 -182.38318426 0.94917773 -180.14282227 0.97094727 C-178.23231834 0.97905174 -178.23231834 0.97905174 -176.28321838 0.98731995 C-172.69547156 1.40304468 -170.79690042 2.2093021 -167.9375 4.375 C-166.52298785 7.20402429 -166.65742735 9.23974232 -166.9375 12.375 C-168.46875 14.5859375 -168.46875 14.5859375 -170.4375 16.75 C-173.7428523 21.19664665 -174.37777962 24.1693626 -174.27734375 29.6796875 C-174.26505234 30.37443176 -174.25276093 31.06917603 -174.24009705 31.78497314 C-174.02779718 39.6238559 -173.04633676 47.36173998 -172 55.125 C-171.63262357 57.93176881 -171.27096472 60.73925535 -170.91015625 63.546875 C-170.82279205 64.21658325 -170.73542786 64.8862915 -170.64541626 65.57629395 C-169.98647683 70.71780862 -169.52860963 75.85721281 -169.18139648 81.02832031 C-169.00736328 83.52618131 -169.00736328 83.52618131 -167.9375 86.375 C-158.41981435 72.96488883 -158.41981435 72.96488883 -149.11108398 59.40942383 C-146.69225933 55.8432924 -144.19440382 52.38112229 -141.546875 48.98046875 C-134.5597196 40.56015111 -134.5597196 40.56015111 -132.375 30.25 C-134.07289016 23.0312283 -138.12658607 18.73318545 -143.9375 14.375 C-145.48336876 11.28326248 -145.23109521 8.78070448 -144.9375 5.375 C-143.36021423 3.17979431 -143.36021423 3.17979431 -140.9375 1.375 C-137.71876526 0.87379456 -137.71876526 0.87379456 -133.86157227 0.87329102 C-133.15700897 0.86788803 -132.45244568 0.86248505 -131.72653198 0.85691833 C-129.40189352 0.84443056 -127.07849369 0.86092251 -124.75390625 0.87890625 C-123.13492264 0.87875124 -121.51593865 0.877262 -119.8969574 0.87449646 C-116.50494976 0.8731124 -113.11336491 0.88566996 -109.72143555 0.90844727 C-105.37906062 0.93680953 -101.03738931 0.93410098 -96.6949625 0.92135715 C-93.35172038 0.91439253 -90.00864008 0.92219853 -86.66541862 0.93461418 C-85.0646826 0.93912268 -83.46392917 0.93947073 -81.8631916 0.93554878 C-79.62270817 0.93262937 -77.38318426 0.94917773 -75.14282227 0.97094727 C-73.23231834 0.97905174 -73.23231834 0.97905174 -71.28321838 0.98731995 C-67.40145082 1.43711389 -64.72046354 2.59203646 -61.9375 5.375 C-61.37144595 11.1487513 -62.46549483 13.8117932 -65.9375 18.375 C-68.5565517 22.127883 -69.30531785 24.51142372 -69.18359375 29.078125 C-69.1563623 30.22216797 -69.12913086 31.36621094 -69.10107422 32.54492188 C-68.82660258 38.97165481 -68.52244571 45.39375524 -68.13793945 51.81494141 C-67.99937333 54.13549472 -67.86744205 56.45635863 -67.73632812 58.77734375 C-67.3196674 66.00100732 -66.84750771 73.19331752 -65.9375 80.375 C-65.61700684 79.80394531 -65.29651367 79.23289062 -64.96630859 78.64453125 C-58.02464629 66.28851968 -51.00684132 53.98216043 -43.83300781 41.75927734 C-41.00992016 36.94636567 -38.22377812 32.12107943 -35.52661133 27.23657227 C-27.73522724 13.20261049 -17.54520259 -0.36351138 0 0 Z " fill="#FCFEFC" transform="translate(467.9375,157.625)"/>
<path d="M0 0 C1.50836929 -0.00810448 1.50836929 -0.00810448 3.04721069 -0.01637268 C6.3715358 -0.02887782 9.69499737 -0.01234814 13.01928711 0.00561523 C15.33751979 0.0054602 17.65575273 0.00397055 19.97398376 0.00120544 C24.83710161 -0.00017965 29.69992496 0.01239164 34.56298828 0.03515625 C40.77104975 0.06342999 46.9786178 0.06083499 53.18671513 0.04806614 C57.97824753 0.04107827 62.76966776 0.0489355 67.56118584 0.06132317 C69.8483277 0.06581535 72.1354817 0.06619416 74.42262459 0.06225777 C97.27500457 0.04135177 97.27500457 0.04135177 106.98413086 3.50170898 C107.89965225 3.81221695 108.81517365 4.12272491 109.75843811 4.44264221 C119.68440825 7.93707655 129.41890462 15.17275085 134.35913086 24.62670898 C138.9664628 34.28207418 137.73183486 45.5018564 134.36694336 55.32592773 C129.56862916 66.34578492 121.86344171 73.77328505 110.78881836 78.25952148 C106.8853867 79.7698188 102.94808416 81.15907964 98.98413086 82.50170898 C100.22549805 82.93870117 101.46686523 83.37569336 102.74584961 83.82592773 C105.82287274 84.98311621 108.30841392 86.11658672 110.79663086 88.31420898 C111.33932617 88.7744043 111.88202148 89.23459961 112.44116211 89.70874023 C117.30636394 95.36222793 117.42424175 100.69391803 117.28881836 107.83374023 C116.91569572 112.32556281 115.88154395 116.40725364 114.65991211 120.73217773 C113.66310752 124.817348 113.64644211 128.31436849 113.98413086 132.50170898 C116.4030017 134.92057983 117.72505435 134.99547862 121.04663086 135.56420898 C125.88690864 136.40448676 125.88690864 136.40448676 126.98413086 137.50170898 C127.76877895 143.77889372 126.62229288 147.30904629 122.87475586 152.39624023 C115.82849667 160.2432107 105.27460145 164.20448602 94.98413086 165.50170898 C92.0243187 165.65917227 89.07270377 165.68673522 86.10913086 165.68920898 C85.3447168 165.70145508 84.58030273 165.71370117 83.79272461 165.72631836 C72.62616419 165.75475612 63.50890424 162.40605912 55.52709961 154.57592773 C49.95446997 147.08462055 49.88685781 138.40390025 50.98413086 129.50170898 C51.84744997 125.33736546 53.01223496 121.26736651 54.18725586 117.18212891 C56.55196636 108.94587137 56.55196636 108.94587137 55.98413086 100.50170898 C53.89520991 96.85279259 51.95795137 95.71900843 47.98413086 94.50170898 C45.17419141 94.36410176 42.47411162 94.31159326 39.67163086 94.37670898 C38.93106445 94.38573242 38.19049805 94.39475586 37.42749023 94.40405273 C35.61289619 94.42746685 33.79847015 94.46333283 31.98413086 94.50170898 C30.40594686 100.06694438 28.83977537 105.63537149 27.28442383 111.20703125 C26.75414938 113.10019837 26.22065931 114.99246796 25.68383789 116.88378906 C24.91077931 119.60957355 24.1495146 122.33842447 23.39038086 125.06811523 C23.14976929 125.90693741 22.90915771 126.74575958 22.66125488 127.61000061 C20.3463913 135.77674532 20.3463913 135.77674532 22.15600586 143.79467773 C22.67678711 144.41987305 23.19756836 145.04506836 23.73413086 145.68920898 C24.27811523 146.35952148 24.82209961 147.02983398 25.38256836 147.72045898 C27.05028811 149.63141811 27.05028811 149.63141811 29.35913086 151.68920898 C30.98413086 153.50170898 30.98413086 153.50170898 31.35913086 156.06420898 C30.98413086 158.50170898 30.98413086 158.50170898 28.98413086 161.50170898 C24.44509144 163.5009612 20.41958492 163.75897581 15.49755859 163.77636719 C14.77319611 163.78147812 14.04883362 163.78658905 13.30252075 163.79185486 C10.92416979 163.80567928 8.5461108 163.80480004 6.16772461 163.80249023 C4.50675856 163.80638009 2.8457935 163.81071536 1.18482971 163.81547546 C-2.28924797 163.82292152 -5.76322398 163.8226574 -9.23730469 163.81738281 C-13.68494048 163.81157942 -18.13216101 163.82854777 -22.57972813 163.85172749 C-26.00699793 163.86646836 -29.43416766 163.86733624 -32.86146355 163.86421776 C-34.50128949 163.86473043 -36.14112112 163.86995813 -37.78091621 163.88002968 C-40.07378213 163.89238881 -42.36583812 163.88560706 -44.65869141 163.87402344 C-45.96185806 163.87465286 -47.26502472 163.87528229 -48.60768127 163.87593079 C-52.26407399 163.47445589 -54.15665572 162.78809987 -57.01586914 160.50170898 C-58.14086914 157.12670898 -58.14086914 157.12670898 -58.01586914 153.50170898 C-56.02592417 150.88990621 -54.01340812 149.14822089 -51.26196289 147.36499023 C-42.08000825 141.39572814 -40.51357787 130.8816306 -37.84210205 120.89007568 C-36.96999399 117.62906656 -36.07917851 114.37325658 -35.18939209 111.11703491 C-34.74418286 109.48725908 -34.29988252 107.85723469 -33.85650635 106.22695923 C-32.18582813 100.08972714 -30.44397542 93.97642405 -28.64086914 87.87670898 C-25.24580319 76.35265641 -21.94163224 64.80304369 -18.64086914 53.25170898 C-18.36962219 52.30350281 -18.09837524 51.35529663 -17.81890869 50.37835693 C-17.04266551 47.66447981 -16.26737782 44.95033172 -15.49243164 42.23608398 C-15.25733887 41.41425629 -15.02224609 40.59242859 -14.7800293 39.74569702 C-14.45325195 38.59963486 -14.45325195 38.59963486 -14.11987305 37.43041992 C-13.93002838 36.7655658 -13.74018372 36.10071167 -13.54458618 35.41571045 C-11.80426964 29.11561388 -10.23575704 21.57801612 -12.94555664 15.37280273 C-13.31938477 14.7965918 -13.69321289 14.22038086 -14.07836914 13.62670898 C-16.01586914 10.50170898 -16.01586914 10.50170898 -16.07836914 7.31420898 C-13.18842249 -0.33564979 -7.07801849 -0.07241287 0 0 Z " fill="#FDFEFC" transform="translate(73.015869140625,158.498291015625)"/>
<path d="M0 0 C1.83111328 -0.03867188 1.83111328 -0.03867188 3.69921875 -0.078125 C8.66519371 0.37283921 11.90706456 2.06647541 15.6875 5.25 C18.92475991 11.22647983 17.85668567 17.99562921 16.125 24.375 C13.41260194 32.2736036 10.65051319 38.18901207 3.1796875 42.375 C-1.19554849 44.4253198 -5.14942418 44.36615283 -9.875 44.3125 C-10.62458984 44.30798828 -11.37417969 44.30347656 -12.14648438 44.29882812 C-13.99352383 44.28706354 -15.84052213 44.26912865 -17.6875 44.25 C-17.08393338 38.62790333 -16.08550104 33.3137171 -14.65625 27.84765625 C-14.46027222 27.08448593 -14.26429443 26.32131561 -14.06237793 25.53501892 C-13.65123362 23.93866294 -13.23767177 22.34292778 -12.82177734 20.74780273 C-12.18330249 18.29638369 -11.55402424 15.84273078 -10.92578125 13.38867188 C-10.52397545 11.83319427 -10.12165063 10.27785063 -9.71875 8.72265625 C-9.53018433 7.9873317 -9.34161865 7.25200714 -9.14733887 6.49440002 C-7.42174076 -0.08893753 -6.78712872 0.08510506 0 0 Z " fill="#4BB42C" transform="translate(129.6875,183.75)"/>
<path d="M0 0 C0.50789063 0.40992188 1.01578125 0.81984375 1.5390625 1.2421875 C8.95992601 7.05102822 14.89554399 8.71529506 24.2890625 7.76953125 C26.19579629 7.5370849 28.09845543 7.27164922 30 7 C28.68 8.32 27.36 9.64 26 11 C25.01 10.505 25.01 10.505 24 10 C21.74201907 10.17436146 19.52923103 10.51409309 17.2890625 10.84375 C14.94023115 11.00407978 13.23505838 10.69399073 11 10 C11 10.66 11 11.32 11 12 C11.66 12 12.32 12 13 12 C13 12.66 13 13.32 13 14 C11.02 14 9.04 14 7 14 C6.896875 13.2575 6.79375 12.515 6.6875 11.75 C5.95746496 8.82985982 4.93210602 7.26812446 3 5 C0.97034802 5.4251892 0.97034802 5.4251892 -1 7 C-1.98494554 9.65177645 -2.45912382 12.20547307 -3 15 C-3.99 14.505 -3.99 14.505 -5 14 C-5.185625 14.928125 -5.185625 14.928125 -5.375 15.875 C-6 18 -6 18 -8 20 C-10.29633824 23.44450737 -10.54016485 25.93812283 -11 30 C-11.598125 30.061875 -12.19625 30.12375 -12.8125 30.1875 C-15.95302542 31.35398087 -16.58160876 33.02813263 -18 36 C-18.73753303 38.81603519 -19 41.08230442 -19 44 C-20.134375 44.515625 -21.26875 45.03125 -22.4375 45.5625 C-24.4032373 46.59782165 -24.4032373 46.59782165 -26 48 C-26.83582968 51.43407381 -26.83582968 51.43407381 -27 55 C-28.96127624 59.11868011 -31.80003043 61.80003043 -35 65 C-35 65.66 -35 66.32 -35 67 C-35 67.99 -35 68.98 -35 70 C-35.598125 70.061875 -36.19625 70.12375 -36.8125 70.1875 C-39.94406448 71.35065252 -40.61862008 73.03003317 -42 76 C-42 77.32 -42 78.64 -42 80 C-42.99 80 -43.98 80 -45 80 C-45 80.99 -45 81.98 -45 83 C-44.34 83 -43.68 83 -43 83 C-42.67 82.34 -42.34 81.68 -42 81 C-42.33 82.32 -42.66 83.64 -43 85 C-44.65 85 -46.3 85 -48 85 C-48.268125 85.70125 -48.53625 86.4025 -48.8125 87.125 C-50.54689758 91.32406783 -52.47872683 95.21809025 -55 99 C-55 99.66 -55 100.32 -55 101 C-55.99 101 -56.98 101 -58 101 C-58.04125 102.0725 -58.0825 103.145 -58.125 104.25 C-59.24701069 109.05861722 -60.9891566 109.40966364 -65 112 C-65.9688059 115.13265479 -65.9688059 115.13265479 -66 118 C-67.65 117.67 -69.3 117.34 -71 117 C-69.70794302 113.3696331 -68.18557425 110.72879484 -65.73046875 107.76953125 C-62.15263721 103.29099981 -59.19685782 98.63275313 -56.3125 93.6875 C-55.27100068 91.92698432 -54.22932896 90.16657063 -53.1875 88.40625 C-52.6615625 87.51292969 -52.135625 86.61960937 -51.59375 85.69921875 C-49.02423739 81.34742166 -46.41709287 77.01835844 -43.8125 72.6875 C-42.42040412 70.36800465 -41.02890807 68.0481502 -39.63745117 65.72827148 C-38.41458404 63.69076735 -37.19060832 61.65392849 -35.96606445 59.61743164 C-32.06234299 53.12288156 -28.17419921 46.61960792 -24.31640625 40.09765625 C-23.92838837 39.44173996 -23.54037048 38.78582367 -23.14059448 38.11003113 C-22.75042145 37.45045914 -22.36024841 36.79088715 -21.95825195 36.11132812 C-14.78298643 23.98254147 -7.59585105 11.87217851 0 0 Z " fill="#227E44" transform="translate(450,202)"/>
<path d="M0 0 C0 0.33 0 0.66 0 1 C-0.61746094 1.14695313 -1.23492187 1.29390625 -1.87109375 1.4453125 C-15.27206651 4.99442857 -22.70610068 12.65383098 -29.640625 24.40234375 C-32.23364968 28.88867402 -34.75722482 33.41302933 -37.28027344 37.93896484 C-40.36351382 43.42699265 -43.53155891 48.86607123 -46.6875 54.3125 C-52.19321673 63.83737596 -57.64358494 73.39038815 -63 83 C-63.33 83 -63.66 83 -64 83 C-66.38776806 48.51072249 -66.38776806 48.51072249 -66 33 C-65.67 33 -65.34 33 -65 33 C-64.0738181 41.13105427 -63.70314062 49.22693637 -63.48242188 57.40429688 C-63.44826172 58.34208984 -63.41410156 59.27988281 -63.37890625 60.24609375 C-63.34132202 61.50957642 -63.34132202 61.50957642 -63.30297852 62.79858398 C-63.1235071 65.28715434 -63.1235071 65.28715434 -61 68 C-60.01 68 -59.02 68 -58 68 C-56.11608215 64.73454239 -55.50712033 61.71888239 -55 58 C-55.66 57.67 -56.32 57.34 -57 57 C-55.71937515 55.2925002 -54.38232443 53.62626404 -53 52 C-52.34 52 -51.68 52 -51 52 C-51 52.66 -51 53.32 -51 54 C-50.34 54.33 -49.68 54.66 -49 55 C-48.01 52.03 -47.02 49.06 -46 46 C-46.66 45.67 -47.32 45.34 -48 45 C-47.236875 44.62875 -46.47375 44.2575 -45.6875 43.875 C-42.43247956 41.60405551 -41.38271575 39.68724199 -40 36 C-40.33 35.01 -40.66 34.02 -41 33 C-40.375 30.375 -40.375 30.375 -39 28 C-36.375 27.1875 -36.375 27.1875 -34 27 C-33.9175 25.906875 -33.835 24.81375 -33.75 23.6875 C-33 20 -33 20 -31.0625 18.3125 C-30.381875 17.879375 -29.70125 17.44625 -29 17 C-27.90833725 15.06669397 -27.90833725 15.06669397 -27 13 C-26.46375 12.360625 -25.9275 11.72125 -25.375 11.0625 C-23.68960221 8.53440331 -23.75180633 6.97832406 -24 4 C-22.824375 4.0825 -21.64875 4.165 -20.4375 4.25 C-15.5904509 4.27569107 -13.06279573 2.52966526 -9 0 C-5.59500205 -1.02941799 -3.37669426 -1.12556475 0 0 Z " fill="#1F7D44" transform="translate(465,157)"/>
<path d="M0 0 C1.25460956 2.50921911 2.45204341 5.04874072 3.5625 7.625 C8.87584783 18.23186974 18.10951473 25.77715877 29 30 C29 30.33 29 30.66 29 31 C19.43 31 9.86 31 0 31 C0 20.77 0 10.54 0 0 Z " fill="#000000" transform="translate(0,469)"/>
<path d="M0 0 C9.24 0 18.48 0 28 0 C25 3 25 3 22.125 4.4296875 C13.47695366 8.77533078 5.65368101 17.00510296 2.1953125 26.12109375 C1.72337862 27.7276084 1.34845516 29.36226073 1 31 C0.67 31 0.34 31 0 31 C0 20.77 0 10.54 0 0 Z " fill="#000000" transform="translate(0,0)"/>
<path d="M0 0 C0.33 0 0.66 0 1 0 C1 9.24 1 18.48 1 28 C-8.9 28 -18.8 28 -29 28 C-26 26 -26 26 -22.75 24.75 C-19.02158082 23.22221889 -16.39591309 20.94901665 -13.48046875 18.20703125 C-12 17 -12 17 -10 17 C-9.731875 16.42121094 -9.46375 15.84242188 -9.1875 15.24609375 C-7.97873378 12.95977606 -6.60372533 11.08720322 -5 9.0625 C-2.76917046 6.1515395 -1.1059289 3.53897249 0 0 Z " fill="#000000" transform="translate(499,472)"/>
<path d="M0 0 C9.24 0 18.48 0 28 0 C28 9.24 28 18.48 28 28 C26 25 26 25 25.0625 21.875 C24.711875 20.92625 24.36125 19.9775 24 19 C23.01 18.67 22.02 18.34 21 18 C20.10025042 16.56706549 19.20220775 15.13300478 18.31640625 13.69140625 C16.20033087 10.97253195 13.4400251 9.2184112 10.609375 7.296875 C10.07828125 6.86890625 9.5471875 6.4409375 9 6 C9 5.34 9 4.68 9 4 C6.03 3.01 3.06 2.02 0 1 C0 0.67 0 0.34 0 0 Z " fill="#000000" transform="translate(472,0)"/>
<path d="M0 0 C0.33 0 0.66 0 1 0 C0.57354696 5.97034251 -0.20862802 11.19759549 -4 16 C-5.85437405 17.41040713 -7.75479642 18.7614972 -9.6875 20.0625 C-13.43341631 22.4828006 -13.43341631 22.4828006 -16.04296875 25.953125 C-16.50581424 28.02644211 -16.50581424 28.02644211 -16 31 C-14.49597949 33.14860073 -13.32895015 33.83552492 -11 35 C-8.66276336 35.09739071 -6.32266286 35.12797366 -3.98339844 35.12939453 C-3.26122635 35.13114685 -2.53905426 35.13289917 -1.79499817 35.13470459 C0.60023378 35.13911713 2.99539225 35.13618598 5.390625 35.1328125 C7.05491144 35.13348601 8.71919778 35.13445642 10.38348389 35.13571167 C13.87724745 35.13718807 17.37098549 35.13503701 20.86474609 35.13037109 C25.33467787 35.12469151 29.80454938 35.1279419 34.27447891 35.13394356 C37.71464487 35.13756582 41.15479667 35.13640262 44.59496307 35.13381577 C46.24232745 35.13315019 47.88969312 35.133962 49.53705597 35.13629532 C51.84667841 35.1388472 54.15620497 35.13494484 56.46582031 35.12939453 C57.77883118 35.12859894 59.09184204 35.12780334 60.44464111 35.12698364 C63.72514881 35.00981662 66.78198111 34.62590495 70 34 C71.33210538 28.92497686 71.33210538 28.92497686 69.953125 24.1328125 C68.4314894 22.29537234 68.4314894 22.29537234 66 20 C69.36414248 21.18199601 71.78205192 22.16050305 74 25 C74.47840672 30.46007668 72.74820683 35.33999711 70 40 C69.154944 39.67501022 68.309888 39.35002045 67.43922424 39.0151825 C63.76269399 37.92995254 60.79910635 37.75259243 56.97241211 37.75708008 C55.95902016 37.75423256 55.95902016 37.75423256 54.92515564 37.75132751 C52.70909735 37.74764604 50.49337252 37.75828599 48.27734375 37.76953125 C46.72848041 37.77072465 45.17961634 37.77117587 43.63075256 37.7709198 C40.39205361 37.77248012 37.1534659 37.78073553 33.91479492 37.79418945 C29.76996088 37.81119275 25.62524871 37.81500307 21.48038387 37.81424427 C18.28474267 37.81451657 15.08912794 37.82000715 11.89349556 37.82724571 C10.36532351 37.83042029 8.83714848 37.83239695 7.30897331 37.83313942 C5.171995 37.83531507 3.03514413 37.84408519 0.89819336 37.85473633 C-0.31614883 37.85854813 -1.53049103 37.86235992 -2.78163147 37.86628723 C-5.64637156 37.98530789 -8.21673708 38.33955882 -11 39 C-11 38.34 -11 37.68 -11 37 C-12.65 37 -14.3 37 -16 37 C-16.66 35.35 -17.32 33.7 -18 32 C-18.66 32 -19.32 32 -20 32 C-19.58552254 26.71541239 -18.77762551 23.77762551 -15 20 C-12.00493457 17.88153908 -10.69349436 17 -7 17 C-7.2784375 15.700625 -7.2784375 15.700625 -7.5625 14.375 C-8.00667933 10.94847372 -7.71954492 8.35787629 -7 5 C-5.68 6.32 -4.36 7.64 -3 9 C-2.01 6.03 -1.02 3.06 0 0 Z " fill="#6CC03E" transform="translate(32,286)"/>
<path d="M0 0 C-0.845625 0.70125 -1.69125 1.4025 -2.5625 2.125 C-5.32334263 4.75317489 -5.32334263 4.75317489 -5 8 C-4.13984008 11.00262804 -4.13984008 11.00262804 -2.46582031 13.3527832 C1.2730624 20.10506588 -0.89446416 28.35845116 -2.828125 35.42578125 C-3.60709218 38.06387294 -4.42509364 40.68847223 -5.25 43.3125 C-5.85169748 45.27861351 -6.4486371 47.24612838 -7.04519653 49.21380615 C-7.4414381 50.51944759 -7.83960505 51.82450628 -8.23971558 53.12896729 C-10.01656692 58.95131618 -11.58308584 64.81950545 -13.12890625 70.70678711 C-14.14203696 74.53697773 -15.23880281 78.3296179 -16.375 82.125 C-19.33105391 92.06013278 -22.16499672 102.02977356 -25 112 C-25.33 112 -25.66 112 -26 112 C-26.33 109.36 -26.66 106.72 -27 104 C-26.34 104 -25.68 104 -25 104 C-24.30259196 101.23132003 -23.61677147 98.46063138 -22.9375 95.6875 C-22.73833984 94.90181641 -22.53917969 94.11613281 -22.33398438 93.30664062 C-22.05844727 92.1706543 -22.05844727 92.1706543 -21.77734375 91.01171875 C-21.60452881 90.31522217 -21.43171387 89.61872559 -21.25366211 88.90112305 C-20.82920931 86.78084134 -20.82920931 86.78084134 -22 84 C-21.01642648 81.99187074 -20.01691264 79.99145391 -19 78 C-19.33 77.34 -19.66 76.68 -20 76 C-19.34 76 -18.68 76 -18 76 C-15.70355128 69.40381752 -13.79449213 62.74803813 -12 56 C-11.25545196 53.26223482 -10.50699819 50.52556181 -9.7578125 47.7890625 C-9.22481137 45.82739854 -8.69945392 43.86364959 -8.1796875 41.8984375 C-7.91414063 40.90070313 -7.64859375 39.90296875 -7.375 38.875 C-7.01535156 37.50988281 -7.01535156 37.50988281 -6.6484375 36.1171875 C-6 34 -6 34 -5 33 C-5.66 32.67 -6.32 32.34 -7 32 C-7 31.01 -7 30.02 -7 29 C-6.34 29 -5.68 29 -5 29 C-4.67 27.35 -4.34 25.7 -4 24 C-3.34 24 -2.68 24 -2 24 C-2.32727759 18.65446605 -3.48898849 15.75207246 -6.84375 11.578125 C-8 10 -8 10 -9 7 C-8.25 3.375 -8.25 3.375 -7 0 C-3.86650268 -1.04449911 -3.01031744 -0.93423645 0 0 Z " fill="#67BE3E" transform="translate(63,160)"/>
<path d="M0 0 C1.32 0 2.64 0 4 0 C4 0.99 4 1.98 4 3 C4.99 2.67 5.98 2.34 7 2 C7.33 1.34 7.66 0.68 8 0 C11 1 11 1 12 2 C13.9935143 2.12369325 15.9913647 2.1779639 17.98852539 2.20532227 C19.26977798 2.22526749 20.55103058 2.24521271 21.87110901 2.26576233 C23.27995684 2.28274797 24.68880595 2.29962673 26.09765625 2.31640625 C27.53112905 2.33696915 28.96459569 2.35796544 30.39805603 2.37937927 C34.1775312 2.43466859 37.9570617 2.48404745 41.7366333 2.53222656 C45.59074855 2.58239165 49.44478309 2.63810371 53.29882812 2.69335938 C60.86581714 2.80102479 68.4328731 2.90245097 76 3 C76.495 3.99 76.495 3.99 77 5 C76.0795842 5.01030746 75.1591684 5.02061493 74.21086121 5.03123474 C65.54392274 5.12914415 56.87705351 5.2316493 48.21023083 5.33933926 C43.75435549 5.39454319 39.29847356 5.44795919 34.8425293 5.49731445 C30.54366116 5.54499527 26.24487297 5.59733949 21.94610023 5.65294075 C20.30464985 5.67334744 18.66317755 5.69206332 17.02168846 5.70907402 C14.72555996 5.73315533 12.42958233 5.76320477 10.13354492 5.79467773 C8.1716346 5.81799416 8.1716346 5.81799416 6.17008972 5.84178162 C2.97546802 5.85898568 2.97546802 5.85898568 0 7 C-0.29933457 10.05321262 -0.40796872 12.953145 0 16 C2.1028059 18.68726558 2.1028059 18.68726558 5 21 C10.68633529 26.89039038 11.9701528 31.88156266 12 40 C9.73083187 36.5962478 9.32979145 34.01789311 8.66015625 30.05859375 C8.1162933 27.6276414 8.1162933 27.6276414 5 26 C4.67 25.01 4.34 24.02 4 23 C2.2675 22.2575 2.2675 22.2575 0.5 21.5 C-1.41015625 20.515625 -1.41015625 20.515625 -3 19 C-3.9282224 15.32954343 -4.0455582 11.77482249 -4 8 C-3.01 8 -2.02 8 -1 8 C-0.67 5.36 -0.34 2.72 0 0 Z " fill="#439354" transform="translate(324,154)"/>
<path d="M0 0 C34.65 0 69.3 0 105 0 C105.495 1.485 105.495 1.485 106 3 C107.051875 2.938125 108.10375 2.87625 109.1875 2.8125 C113.15816493 3.0077786 114.84196969 3.70325068 118 6 C115.24928337 7.37535831 114.28902996 6.54464149 111.38378906 5.59448242 C101.09408347 2.91315108 90.42033221 3.51704756 79.859375 3.48828125 C77.52239043 3.4714143 75.18541481 3.45326138 72.84844971 3.43388367 C66.73299968 3.38659665 60.61758601 3.35664979 54.50201416 3.33044434 C48.24736354 3.30053092 41.99283789 3.25403784 35.73828125 3.20898438 C23.49225316 3.12319375 11.24619918 3.0557411 -1 3 C-0.67 2.01 -0.34 1.02 0 0 Z " fill="#78BA66" transform="translate(64,156)"/>
<path d="M0 0 C2 2 2 2 3 5 C4.32 4.34 5.64 3.68 7 3 C8.88235294 11.23529412 8.88235294 11.23529412 7 15 C7.39938767 17.09821215 7.39938767 17.09821215 8 19 C8.66 19 9.32 19 10 19 C10 19.66 10 20.32 10 21 C10.61875 20.79375 11.2375 20.5875 11.875 20.375 C12.57625 20.25125 13.2775 20.1275 14 20 C14.66 20.66 15.32 21.32 16 22 C15.34 22 14.68 22 14 22 C14.33 23.32 14.66 24.64 15 26 C17.64 26.33 20.28 26.66 23 27 C23.66 29.64 24.32 32.28 25 35 C26.98 35 28.96 35 31 35 C31.33 36.32 31.66 37.64 32 39 C22.51525108 38.50080269 15.13075304 31.73142927 8.90625 25.15625 C2.23512807 17.61022684 -0.54481785 9.9883272 0 0 Z M6 17 C7 19 7 19 7 19 Z " fill="#65C32C" transform="translate(0,461)"/>
<path d="M0 0 C0 0.33 0 0.66 0 1 C-1.299375 1.3403125 -1.299375 1.3403125 -2.625 1.6875 C-5.58233638 2.83757526 -6.90878209 3.60899142 -9.1875 5.625 C-12 8 -12 8 -15 8 C-18.03344954 8.08885 -18.03344954 8.08885 -21 9 C-22.85233285 11.40803271 -24 12.92741925 -24 16 C-25.32 16 -26.64 16 -28 16 C-30.19783701 18.12391873 -30.93966744 19.4213559 -31.2578125 22.47265625 C-31.21398437 23.32730469 -31.17015625 24.18195312 -31.125 25.0625 C-30.98342601 28.20072348 -30.99099651 29.97298954 -32 33 C-32.66 33 -33.32 33 -34 33 C-34 33.66 -34 34.32 -34 35 C-34.99 35 -35.98 35 -37 35 C-37.66 36.32 -38.32 37.64 -39 39 C-39.62944974 30.65979096 -37.88918512 23.38649619 -32.53125 16.8046875 C-27.9096216 11.49192147 -23.04121827 6.67211307 -17 3 C-16.0925 2.401875 -15.185 1.80375 -14.25 1.1875 C-9.51555249 -0.54239428 -4.98699297 -0.23958863 0 0 Z " fill="#65C529" transform="translate(39,0)"/>
<path d="M0 0 C2.54232342 -0.08152344 5.08199202 -0.14073716 7.625 -0.1875 C8.33785156 -0.21263672 9.05070312 -0.23777344 9.78515625 -0.26367188 C14.60179642 -0.32995591 17.85121667 0.29294929 22 3 C25.33140581 6.49374126 25.54750662 9.04643782 25.4375 13.71484375 C24.86847488 17.9876127 23.68911449 21.98891369 22.5 26.125 C19.75969915 35.80529649 17.37058206 46.89632886 21.5 56.5625 C24.14764789 60.85778489 28.10595705 63.88139417 32 67 C32.99 67.99 32.99 67.99 34 69 C31.03 68.67 28.06 68.34 25 68 C24.7525 67.2575 24.505 66.515 24.25 65.75 C22.90634806 62.79396573 21.31013315 61.23312872 19 59 C19 58.34 19 57.68 19 57 C18.01 57 17.02 57 16 57 C16.16242188 56.20980469 16.32484375 55.41960937 16.4921875 54.60546875 C17.12014003 50.14700576 17.14563726 45.80798244 17.125 41.3125 C17.12886719 40.45849609 17.13273437 39.60449219 17.13671875 38.72460938 C17.13478516 37.49387695 17.13478516 37.49387695 17.1328125 36.23828125 C17.13168457 35.49618408 17.13055664 34.75408691 17.12939453 33.98950195 C17.07087139 31.7892974 17.07087139 31.7892974 16 29 C16.495 28.62875 16.99 28.2575 17.5 27.875 C19.59755514 25.25305607 19.21743835 23.26157528 19 20 C19.99 20 20.98 20 22 20 C22.19532961 18.2300132 22.38098882 16.45895721 22.5625 14.6875 C22.66691406 13.70136719 22.77132812 12.71523438 22.87890625 11.69921875 C23.16602527 8.90069653 23.16602527 8.90069653 22 6 C19.49552484 4.78130071 19.49552484 4.78130071 17 4 C17 3.34 17 2.68 17 2 C11.39 1.67 5.78 1.34 0 1 C0 0.67 0 0.34 0 0 Z " fill="#56B23B" transform="translate(105,252)"/>
<path d="M0 0 C0.66 0 1.32 0 2 0 C2.13051758 1.0737085 2.26103516 2.14741699 2.39550781 3.25366211 C2.88823065 7.27554496 3.39967072 11.29487115 3.91650391 15.3137207 C4.13670618 17.04616132 4.35197553 18.77923696 4.56201172 20.51293945 C5.88729784 35.80775406 5.88729784 35.80775406 13.625 48.5 C18.81681003 51.77903791 24.21713654 51.76724744 30.21484375 50.55078125 C31.82593073 50.0862347 33.41633916 49.55083855 35 49 C34.07675039 51.30812401 33.39860006 52.72210278 31.3359375 54.16015625 C28.16689998 55.29952593 25.70768886 54.92736548 22.375 54.5625 C18.03706057 53.8850618 18.03706057 53.8850618 14 55 C14.33 53.68 14.66 52.36 15 51 C14.4225 50.896875 13.845 50.79375 13.25 50.6875 C10.67950842 49.90207202 9.06342716 48.69495803 7 47 C6.34 47.66 5.68 48.32 5 49 C5 47.35 5 45.7 5 44 C4.34 44 3.68 44 3 44 C3.33 41.36 3.66 38.72 4 36 C3.34 35.67 2.68 35.34 2 35 C2.02320313 33.98164063 2.04640625 32.96328125 2.0703125 31.9140625 C2.2349203 21.13096539 1.39996143 10.6872056 0 0 Z " fill="#338746" transform="translate(342,270)"/>
<path d="M0 0 C1.32 0.33 2.64 0.66 4 1 C4.368694 2.37117605 4.71919853 3.74724707 5.0625 5.125 C5.35833984 6.27355469 5.35833984 6.27355469 5.66015625 7.4453125 C6.65380738 14.91482786 3.12567513 19.14878271 -1.1875 24.8125 C-2.32849402 26.33859577 -3.46782104 27.86593931 -4.60546875 29.39453125 C-5.16540527 30.14428223 -5.7253418 30.8940332 -6.30224609 31.66650391 C-8.99133597 35.36255237 -11.50406965 39.17177099 -14 43 C-15 40 -15 40 -13.6875 37.3125 C-13.130625 36.549375 -12.57375 35.78625 -12 35 C-11.34 35 -10.68 35 -10 35 C-9.835 33.741875 -9.67 32.48375 -9.5 31.1875 C-9.4071875 30.47980469 -9.314375 29.77210938 -9.21875 29.04296875 C-8.946767 26.84528294 -8.946767 26.84528294 -9 24 C-8.34 23.67 -7.68 23.34 -7 23 C-7 22.01 -7 21.02 -7 20 C-2.25 18.875 -2.25 18.875 0 20 C1.2086563 17.20898563 1.2086563 17.20898563 2 14 C1.36525925 12.65117592 0.70151152 11.3153341 0 10 C0.875 7.75 0.875 7.75 2 6 C1.34 6 0.68 6 0 6 C0 4.02 0 2.04 0 0 Z " fill="#278F37" transform="translate(329,181)"/>
<path d="M0 0 C0.66 0.33 1.32 0.66 2 1 C1.67 2.98 1.34 4.96 1 7 C0.34 7 -0.32 7 -1 7 C-1.33 7.99 -1.66 8.98 -2 10 C-2.495 9.505 -2.495 9.505 -3 9 C-3.99 10.485 -3.99 10.485 -5 12 C-5.66 12 -6.32 12 -7 12 C-7.268125 12.639375 -7.53625 13.27875 -7.8125 13.9375 C-9 16 -9 16 -12 17 C-13.22520264 20.00847418 -13.22520264 20.00847418 -14 23 C-14.66 23 -15.32 23 -16 23 C-16.33 22.34 -16.66 21.68 -17 21 C-19.76276177 21.52268466 -22.3260876 22.10869587 -25 23 C-24.67 23.99 -24.34 24.98 -24 26 C-26 27 -26 27 -28.1640625 26.44140625 C-28.97617188 26.15136719 -29.78828125 25.86132812 -30.625 25.5625 C-31.85089844 25.13130859 -31.85089844 25.13130859 -33.1015625 24.69140625 C-33.72804687 24.46324219 -34.35453125 24.23507813 -35 24 C-31.92072073 22.31391649 -28.72973621 21.18628812 -25.41552734 20.04760742 C-13.74524707 15.96829306 -6.30367511 10.90164989 0 0 Z " fill="#50A542" transform="translate(205,217)"/>
<path d="M0 0 C0.66 0.33 1.32 0.66 2 1 C1.525625 1.7425 1.05125 2.485 0.5625 3.25 C-1.04188529 5.78732859 -1.04188529 5.78732859 -1.5 8 C-2.16497745 10.65990981 -3.59437972 12.65729954 -5 15 C-5.69579454 17.19130534 -5.69579454 17.19130534 -6 19 C-6.99 19 -7.98 19 -9 19 C-9.04125 20.0725 -9.0825 21.145 -9.125 22.25 C-10.24701069 27.05861722 -11.9891566 27.40966364 -16 30 C-16.9688059 33.13265479 -16.9688059 33.13265479 -17 36 C-18.65 35.67 -20.3 35.34 -22 35 C-20.71531613 31.39502776 -19.21831523 28.77677239 -16.7734375 25.84375 C-12.89377485 20.99266327 -9.74759262 15.85979188 -6.625 10.5 C-5.57666152 8.71807842 -4.52724262 6.93679188 -3.4765625 5.15625 C-3.02361816 4.38087891 -2.57067383 3.60550781 -2.10400391 2.80664062 C-1 1 -1 1 0 0 Z " fill="#298644" transform="translate(401,284)"/>
<path d="M0 0 C3.36414248 1.18199601 5.78205192 2.16050305 8 5 C8.47840672 10.46007668 6.74820683 15.33999711 4 20 C3.23864746 19.67854004 2.47729492 19.35708008 1.69287109 19.02587891 C-3.26608913 17.64828067 -7.96116725 17.64403251 -13.0859375 17.5859375 C-14.14285797 17.56657135 -15.19977844 17.5472052 -16.28872681 17.5272522 C-19.65073684 17.46767086 -23.01278151 17.42115658 -26.375 17.375 C-28.66017084 17.33680052 -30.94532758 17.29774764 -33.23046875 17.2578125 C-38.820187 17.16198698 -44.40999076 17.07687711 -50 17 C-50 16.67 -50 16.34 -50 16 C-49.41197601 15.98969254 -48.82395203 15.97938507 -48.21810913 15.96876526 C-42.08589224 15.86040168 -35.95381345 15.74582892 -29.82177734 15.62768555 C-27.53469742 15.58443223 -25.24758721 15.54275053 -22.96044922 15.50268555 C-19.66885254 15.44475001 -16.37740699 15.3811229 -13.0859375 15.31640625 C-12.06696381 15.29969376 -11.04799011 15.28298126 -9.99813843 15.26576233 C-5.23558827 15.16687022 -0.68302326 14.97476262 4 14 C5.33210538 8.92497686 5.33210538 8.92497686 3.953125 4.1328125 C2.4314894 2.29537234 2.4314894 2.29537234 0 0 Z " fill="#62B441" transform="translate(98,306)"/>
<path d="M0 0 C0 0.99 0 1.98 0 3 C-0.99 3 -1.98 3 -3 3 C-2.67 4.65 -2.34 6.3 -2 8 C-1.34 8 -0.68 8 0 8 C0 9.32 0 10.64 0 12 C25.08 12.33 50.16 12.66 76 13 C76 13.33 76 13.66 76 14 C66.30760429 14.06954115 56.6152946 14.12283212 46.92270374 14.15543652 C42.42193089 14.17108579 37.92132885 14.19231054 33.4206543 14.22631836 C29.07643138 14.25893821 24.73237267 14.27685857 20.38803673 14.28463173 C18.73144636 14.29017053 17.07486488 14.30098652 15.4183445 14.31719017 C13.09616368 14.3389997 10.7746595 14.34196551 8.45239258 14.34057617 C7.76906357 14.351362 7.08573456 14.36214783 6.38169861 14.3732605 C2.10636609 14.34562219 -0.65070244 13.70527968 -4 11 C-5.10579562 7.19882756 -5.59417159 5.10346152 -3.6875 1.5625 C-2 0 -2 0 0 0 Z " fill="#EDFDE2" transform="translate(20,308)"/>
<path d="M0 0 C3.88736133 0.45733663 5.21488971 1.93593514 8.1875 4.375 C10.7292707 4.54171852 10.7292707 4.54171852 13.1875 4.375 C15.5 5.375 15.5 5.375 17.1875 6.375 C17.001875 7.138125 16.81625 7.90125 16.625 8.6875 C15.95930827 11.46467375 15.95930827 11.46467375 17.1875 14.375 C17.22704234 16.70799825 17.23151732 19.04208189 17.1875 21.375 C15.59632051 18.98823077 14.68311664 17.15411902 13.625 14.5625 C10.82354862 8.886425 5.86744275 5.77176659 0.046875 3.5625 C-1.55344477 3.09411373 -3.18155153 2.72201031 -4.8125 2.375 C-2.8125 0.375 -2.8125 0.375 0 0 Z " fill="#09713D" transform="translate(477.8125,155.625)"/>
<path d="M0 0 C0.66 0.33 1.32 0.66 2 1 C2.57303222 4.1926081 2.38608164 6.32982054 0.7578125 9.15625 C-3.29179954 14.60549753 -7.98398104 19.7195259 -14 23 C-17.5625 22.9375 -17.5625 22.9375 -20 22 C-20 21.01 -20 20.02 -20 19 C-14.25 17.875 -14.25 17.875 -12 19 C-12 18.01 -12 17.02 -12 16 C-10.7934375 15.319375 -10.7934375 15.319375 -9.5625 14.625 C-6.75117093 13.23347815 -6.75117093 13.23347815 -6.1875 10.3125 C-6.125625 9.549375 -6.06375 8.78625 -6 8 C-5.01 8 -4.02 8 -3 8 C-1.58622659 5.36095629 -0.62759865 2.92879371 0 0 Z " fill="#10693C" transform="translate(494,473)"/>
<path d="M0 0 C0.33 0 0.66 0 1 0 C2.0554369 8.92369994 2.31182736 17.82888154 2.51757812 26.80664062 C2.55173828 27.91845703 2.58589844 29.03027344 2.62109375 30.17578125 C2.6461499 31.17520752 2.67120605 32.17463379 2.69702148 33.2043457 C3.01298771 36.11984065 3.78583716 38.34365825 5 41 C5.66 41 6.32 41 7 41 C5.74433095 44.47723736 4.26656844 47.09382458 2 50 C-0.38776806 15.51072249 -0.38776806 15.51072249 0 0 Z " fill="#2D7F46" transform="translate(399,190)"/>
<path d="M0 0 C0.87785156 0.2165625 0.87785156 0.2165625 1.7734375 0.4375 C13.93739575 3.06754503 26.71036415 2.58575946 39 1 C34.80273887 5.19726113 28.60909456 5.12665662 22.96875 5.1953125 C20.81241271 5.1821641 18.6561167 5.15852813 16.5 5.125 C15.39140625 5.11597656 14.2828125 5.10695313 13.140625 5.09765625 C10.42685408 5.07426167 7.71354455 5.04148175 5 5 C5 4.34 5 3.68 5 3 C3.35 3 1.7 3 0 3 C0 2.01 0 1.02 0 0 Z " fill="#50AE3A" transform="translate(139,321)"/>
<path d="M0 0 C4.23680777 0.24922399 6.4538651 0.5407502 9.75 3.3125 C10.4925 4.199375 11.235 5.08625 12 6 C12.61875 6.680625 13.2375 7.36125 13.875 8.0625 C15 10 15 10 14.6875 12.25 C14.460625 12.8275 14.23375 13.405 14 14 C12.0625 13.6875 12.0625 13.6875 10 13 C9 10 9 10 10 7 C7.03 6.67 4.06 6.34 1 6 C0.67 4.02 0.34 2.04 0 0 Z " fill="#04733A" transform="translate(480,9)"/>
<path d="M0 0 C3.09935734 2.24703407 4.7460012 3.58939954 5.4375 7.4296875 C5.66552615 17.49134134 2.71828611 26.71509042 -3 35 C-3.99 35.495 -3.99 35.495 -5 36 C-4.125 32.125 -4.125 32.125 -3 31 C-2.76924918 29.65252916 -2.58846937 28.29622435 -2.4375 26.9375 C-2.293125 25.638125 -2.14875 24.33875 -2 23 C-1.01 22.67 -0.02 22.34 1 22 C2.35573695 18.66943236 2.16697113 15.11399372 2.1875 11.5625 C2.20876953 9.89380859 2.20876953 9.89380859 2.23046875 8.19140625 C2.00247902 5.03432812 1.34441009 2.84292253 0 0 Z " fill="#64AD50" transform="translate(142,187)"/>
<path d="M0 0 C0.66 0 1.32 0 2 0 C2.14622803 1.09465576 2.29245605 2.18931152 2.44311523 3.31713867 C2.98754608 7.38946099 3.53410543 11.46149531 4.08129883 15.53344727 C4.31755444 17.29378638 4.55323752 19.05420244 4.78833008 20.81469727 C5.12690109 23.34932716 5.46754945 25.88367061 5.80859375 28.41796875 C5.91280136 29.20149216 6.01700897 29.98501556 6.12437439 30.7922821 C6.63328978 34.55917823 7.19430128 38.28213722 8 42 C6.62437146 40.71034824 5.29233607 39.37310707 4 38 C4 37.34 4 36.68 4 36 C3.34 35.67 2.68 35.34 2 35 C2.02320313 33.98164063 2.04640625 32.96328125 2.0703125 31.9140625 C2.2349203 21.13096539 1.39996143 10.6872056 0 0 Z " fill="#338944" transform="translate(342,270)"/>
<path d="M0 0 C0.556875 0.144375 1.11375 0.28875 1.6875 0.4375 C9.7350087 2.39500212 16.82411484 2.16798359 25 1 C23.68 2.32 22.36 3.64 21 5 C20.34 4.67 19.68 4.34 19 4 C16.74201907 4.17436146 14.52923103 4.51409309 12.2890625 4.84375 C9.94023115 5.00407978 8.23505838 4.69399073 6 4 C6 4.66 6 5.32 6 6 C6.66 6 7.32 6 8 6 C8 6.66 8 7.32 8 8 C6.02 8 4.04 8 2 8 C1.855625 7.236875 1.71125 6.47375 1.5625 5.6875 C1.0367406 2.91827092 1.0367406 2.91827092 0 0 Z " fill="#147441" transform="translate(455,208)"/>
<path d="M0 0 C29.7 0.495 29.7 0.495 60 1 C60 1.33 60 1.66 60 2 C39.87 2.33 19.74 2.66 -1 3 C-0.67 2.01 -0.34 1.02 0 0 Z " fill="#5CB33A" transform="translate(64,156)"/>
<path d="M0 0 C1 3 1 3 1 6 C0.34 6 -0.32 6 -1 6 C-1 6.66 -1 7.32 -1 8 C-2.32 8.33 -3.64 8.66 -5 9 C-5.66 12.3 -6.32 15.6 -7 19 C-8.32 19.33 -9.64 19.66 -11 20 C-11.495 20.53625 -11.99 21.0725 -12.5 21.625 C-13.2425 22.305625 -13.2425 22.305625 -14 23 C-16.1875 22.6875 -16.1875 22.6875 -18 22 C-16.948125 20.9790625 -16.948125 20.9790625 -15.875 19.9375 C-9.79951423 13.82788229 -4.84077452 7.11794359 0 0 Z " fill="#3C9342" transform="translate(293,296)"/>
<path d="M0 0 C0 0.33 0 0.66 0 1 C-1.299375 1.3403125 -1.299375 1.3403125 -2.625 1.6875 C-5.58233638 2.83757526 -6.90878209 3.60899142 -9.1875 5.625 C-12 8 -12 8 -15 8 C-17.00309329 7.68578929 -19.00371336 7.3548954 -21 7 C-14.7441027 0.0222684 -8.92006 -0.42854381 0 0 Z " fill="#6FC93C" transform="translate(39,0)"/>
<path d="M0 0 C0.33 0 0.66 0 1 0 C1.33 1.98 1.66 3.96 2 6 C3.32 6 4.64 6 6 6 C6.33 7.32 6.66 8.64 7 10 C8.134375 10.144375 9.26875 10.28875 10.4375 10.4375 C14 11 14 11 15 12 C15.07226502 13.85287502 15.0838122 15.70833878 15.0625 17.5625 C15.05347656 18.57441406 15.04445312 19.58632813 15.03515625 20.62890625 C15.02355469 21.41136719 15.01195312 22.19382812 15 23 C14.34 23.33 13.68 23.66 13 24 C13 20.7 13 17.4 13 14 C11.411875 13.731875 9.82375 13.46375 8.1875 13.1875 C5.41416233 12.71927416 3.49168831 12.34757277 1.1875 10.71875 C-0.37396117 8.45874042 -0.30575709 7.03241312 -0.1875 4.3125 C-0.16042969 3.50425781 -0.13335937 2.69601562 -0.10546875 1.86328125 C-0.07066406 1.24839844 -0.03585938 0.63351562 0 0 Z " fill="#4EA83E" transform="translate(186,282)"/>
<path d="M0 0 C2.54232342 -0.08152344 5.08199202 -0.14073716 7.625 -0.1875 C8.33785156 -0.21263672 9.05070312 -0.23777344 9.78515625 -0.26367188 C14.60179642 -0.32995591 17.85121667 0.29294929 22 3 C24.13083324 5.162235 24.9027956 6.3666036 25.36328125 9.3671875 C25.26368563 14.28567897 24.94034528 18.39167996 23 23 C22.67 23 22.34 23 22 23 C22.08378906 22.02417969 22.16757813 21.04835938 22.25390625 20.04296875 C22.35574219 18.77066406 22.45757812 17.49835938 22.5625 16.1875 C22.66691406 14.92292969 22.77132812 13.65835937 22.87890625 12.35546875 C23.19597178 9.00418816 23.19597178 9.00418816 22 6 C19.49552484 4.78130071 19.49552484 4.78130071 17 4 C17 3.34 17 2.68 17 2 C11.39 1.67 5.78 1.34 0 1 C0 0.67 0 0.34 0 0 Z " fill="#6FB956" transform="translate(105,252)"/>
<path d="M0 0 C0.66 0 1.32 0 2 0 C3.62571185 3.25142369 3.56302884 6.48718961 3 10 C1.67099151 12.92580227 0.12404886 15.5798716 -2 18 C-2.66 18 -3.32 18 -4 18 C-4 26.25 -4 34.5 -4 43 C-4.33 43 -4.66 43 -5 43 C-8.26415094 23.41509434 -8.26415094 23.41509434 -4.4375 15.953125 C-2.5 13.375 -2.5 13.375 -0.53125 11.2109375 C1.48010689 8.30678444 1.33445859 6.46536257 1 3 C0.67 2.01 0.34 1.02 0 0 Z " fill="#49944F" transform="translate(299,161)"/>
<path d="M0 0 C1.034445 3.63661428 0.81933607 6.13699898 0.125 9.875 C-0.05804688 10.88304687 -0.24109375 11.89109375 -0.4296875 12.9296875 C-0.81103018 14.98266932 -1.21091221 17.0322908 -1.62890625 19.078125 C-2.00447108 22.0352039 -1.80041533 24.01015224 -1.0625 26.875 C-0.86785156 27.65617187 -0.67320313 28.43734375 -0.47265625 29.2421875 C-0.31667969 29.82226562 -0.16070312 30.40234375 0 31 C-4.91002812 26.24835989 -4.91002812 26.24835989 -5.21875 21.96484375 C-4.95705051 17.2215405 -3.85128148 13.09477113 -2.5 8.5625 C-2.26152344 7.73556641 -2.02304688 6.90863281 -1.77734375 6.05664062 C-1.193157 4.03535448 -0.59772561 2.01732395 0 0 Z " fill="#6FB952" transform="translate(98,275)"/>
<path d="M0 0 C0.33 0 0.66 0 1 0 C1.19129582 4.78239552 1.08122634 8.6393353 -1 13 C-2.63495707 14.05104383 -4.29883624 15.05988318 -6 16 C-6 16.99 -6 17.98 -6 19 C-7.98 19.33 -9.96 19.66 -12 20 C-10.60494063 16.86285157 -8.93325414 14.71762366 -6.5625 12.25 C-3.06709828 8.37592976 -1.50822909 4.96828408 0 0 Z " fill="#1B784A" transform="translate(494,188)"/>
<path d="M0 0 C2.86724686 0.57344937 3.8614515 0.8614515 6 3 C6.23046875 5.0234375 6.23046875 5.0234375 6.1875 7.375 C6.17783203 8.53128906 6.17783203 8.53128906 6.16796875 9.7109375 C5.76219583 15.24077316 4.03849017 17.15381889 0 21 C-1.02813611 22.31175986 -2.04084432 23.6369893 -3 25 C-2.58207301 19.67143091 -1.60384816 16.94170892 2 13 C3.52846661 9.94306678 3.23242445 7.37015453 3 4 C1.64114884 1.59916562 1.64114884 1.59916562 0 0 Z " fill="#298244" transform="translate(402,159)"/>
<path d="M0 0 C0 0.99 0 1.98 0 3 C-0.99 3 -1.98 3 -3 3 C-2.67 4.65 -2.34 6.3 -2 8 C-1.34 8 -0.68 8 0 8 C0 9.32 0 10.64 0 12 C6.6 12.33 13.2 12.66 20 13 C20 13.33 20 13.66 20 14 C16.93696422 14.08115993 13.87609185 14.14057409 10.8125 14.1875 C9.94818359 14.21263672 9.08386719 14.23777344 8.19335938 14.26367188 C3.36131697 14.31921259 -0.17924743 14.33837299 -4 11 C-5.10579562 7.19882756 -5.59417159 5.10346152 -3.6875 1.5625 C-2 0 -2 0 0 0 Z " fill="#EAFCDC" transform="translate(20,308)"/>
<path d="M0 0 C0.33 0 0.66 0 1 0 C1 4.62 1 9.24 1 14 C0.67 13.01 0.34 12.02 0 11 C-0.66 10.67 -1.32 10.34 -2 10 C-4.11683841 10.89163577 -4.11683841 10.89163577 -6 12 C-6 12.66 -6 13.32 -6 14 C-7.32 14.33 -8.64 14.66 -10 15 C-8.89789095 13.24870343 -7.79322568 11.49901536 -6.6875 9.75 C-6.07261719 8.77546875 -5.45773437 7.8009375 -4.82421875 6.796875 C-3.29313273 4.44942834 -1.76622401 2.17540787 0 0 Z " fill="#378E47" transform="translate(339,229)"/>
<path d="M0 0 C2.75 -0.375 2.75 -0.375 6 0 C11.1443618 5.97858264 11.15046268 11.74094358 11.0625 19.3125 C11.05798828 20.05306641 11.05347656 20.79363281 11.04882812 21.55664062 C11.03712175 23.37112899 11.01918898 25.18557534 11 27 C10.34 27.33 9.68 27.66 9 28 C9.04640625 26.92621094 9.0928125 25.85242188 9.140625 24.74609375 C9.57466127 13.14384963 9.57466127 13.14384963 3.62109375 3.484375 C2.45835764 2.27857459 1.23479587 1.13189622 0 0 Z " fill="#56A849" transform="translate(180,244)"/>
<path d="M0 0 C1.32 0.33 2.64 0.66 4 1 C4.66 4.96 5.32 8.92 6 13 C5.01 13.33 4.02 13.66 3 14 C2.01 13.01 1.02 12.02 0 11 C0.66 9.35 1.32 7.7 2 6 C1.34 6 0.68 6 0 6 C0 4.02 0 2.04 0 0 Z " fill="#268C37" transform="translate(329,181)"/>
<path d="M0 0 C1.23234375 -0.01417969 2.4646875 -0.02835938 3.734375 -0.04296875 C7.05999008 0.17504379 9.27475759 0.75098029 12.25 2.1875 C11.59 2.8475 10.93 3.5075 10.25 4.1875 C9.59 3.8575 8.93 3.5275 8.25 3.1875 C6.81320968 3.14233567 5.37448054 3.14885851 3.9375 3.1875 C0.56098014 3.231068 -2.45939388 3.03668868 -5.75 2.1875 C-6.08 4.1675 -6.41 6.1475 -6.75 8.1875 C-7.41 8.1875 -8.07 8.1875 -8.75 8.1875 C-7.71304615 0.04000543 -7.71304615 0.04000543 0 0 Z " fill="#70BA59" transform="translate(129.75,183.8125)"/>
<path d="M0 0 C0.33 0 0.66 0 1 0 C1.33 2.31 1.66 4.62 2 7 C2.66 6.67 3.32 6.34 4 6 C4 7.65 4 9.3 4 11 C7.3 11 10.6 11 14 11 C14 11.33 14 11.66 14 12 C8.72 12 3.44 12 -2 12 C-1 3.42857143 -1 3.42857143 0 0 Z " fill="#69BB50" transform="translate(114,216)"/>
<path d="M0 0 C5.3458594 0.7060569 8.69051593 3.71414193 12.3125 7.5625 C12.6425 8.18125 12.9725 8.8 13.3125 9.4375 C12.9825 10.4275 12.6525 11.4175 12.3125 12.4375 C11.590625 11.674375 10.86875 10.91125 10.125 10.125 C5.53548647 5.73946485 1.45022636 4.00201849 -4.6875 2.4375 C-2.6875 0.4375 -2.6875 0.4375 0 0 Z " fill="#1D784A" transform="translate(477.6875,155.5625)"/>
<path d="M0 0 C0.33 1.32 0.66 2.64 1 4 C0.34 4 -0.32 4 -1 4 C-1.061875 4.5775 -1.12375 5.155 -1.1875 5.75 C-2.69261654 9.91801503 -6.38958796 11.63873573 -10.0625 13.8125 C-13.2172321 15.08781723 -13.91747872 14.97447447 -17 14 C-16.40832031 13.68546875 -15.81664062 13.3709375 -15.20703125 13.046875 C-8.77047133 9.56084255 -3.51898721 6.66755472 0 0 Z " fill="#59A94D" transform="translate(198,306)"/>
<path d="M0 0 C4.76376095 3.66958461 4.76376095 3.66958461 5.3671875 7.06787109 C5.37538214 9.46736486 5.22495818 11.79874919 5 14.1875 C4.95488281 15.00669922 4.90976563 15.82589844 4.86328125 16.66992188 C4.5333634 21.1238128 4.5333634 21.1238128 4 23 C3.01 23.66 2.02 24.32 1 25 C1.165 24.071875 1.33 23.14375 1.5 22.1875 C3.01593112 12.37322573 3.01593112 12.37322573 0 3.3125 C-0.66 2.549375 -1.32 1.78625 -2 1 C-1.34 0.67 -0.68 0.34 0 0 Z " fill="#E8FCE2" transform="translate(144,185)"/>
<path d="M0 0 C0.33 0 0.66 0 1 0 C1.3403125 1.60875 1.3403125 1.60875 1.6875 3.25 C3.19487903 7.55679722 4.47298847 8.29322371 8 11 C13 17.6576087 13 17.6576087 13 22 C12.34 22 11.68 22 11 22 C10.896875 21.401875 10.79375 20.80375 10.6875 20.1875 C10.15981013 17.91889034 10.15981013 17.91889034 8.4375 16.4375 C7.963125 15.963125 7.48875 15.48875 7 15 C7 14.01 7 13.02 7 12 C6.401875 11.7525 5.80375 11.505 5.1875 11.25 C2.58679257 9.76388147 1.45583423 8.62050161 0 6 C-0.1875 2.75 -0.1875 2.75 0 0 Z " fill="#52A24E" transform="translate(217,165)"/>
<path d="M0 0 C0.33 0 0.66 0 1 0 C1.31461385 7.09629025 1.44572039 12.68284595 -2 19 C-2.33 19 -2.66 19 -3 19 C-4.20577428 14.05632546 -3.6290678 10.79137588 -2 6 C-1.67 6 -1.34 6 -1 6 C-0.67 4.02 -0.34 2.04 0 0 Z " fill="#45906E" transform="translate(499,460)"/>
<path d="M0 0 C0.99 0.33 1.98 0.66 3 1 C3 3.66666667 3 6.33333333 3 9 C0.1875 9.6875 0.1875 9.6875 -3 10 C-4.875 8.5625 -4.875 8.5625 -6 7 C-5.195625 6.401875 -4.39125 5.80375 -3.5625 5.1875 C-0.77672016 3.19052724 -0.77672016 3.19052724 0 0 Z " fill="#3CA82C" transform="translate(197,310)"/>
<path d="M0 0 C3.35887729 1.18014608 5.80688575 2.1430945 8 5 C8.109375 7.2265625 8.109375 7.2265625 7.75 9.625 C7.64171875 10.42164063 7.5334375 11.21828125 7.421875 12.0390625 C7 14 7 14 6 15 C4.33382885 15.04063832 2.66611905 15.042721 1 15 C1.99 14.67 2.98 14.34 4 14 C5.33210538 8.92497686 5.33210538 8.92497686 3.953125 4.1328125 C2.4314894 2.29537234 2.4314894 2.29537234 0 0 Z " fill="#67B94A" transform="translate(98,306)"/>
<path d="M0 0 C0.33 0 0.66 0 1 0 C1.71094649 10.96042506 0.45738862 21.49293694 -7 30 C-6.41845051 26.58264733 -5.52006071 23.76013059 -4.0625 20.625 C-1.28981676 13.97056022 -0.72178715 7.12289948 0 0 Z " fill="#E1F9DE" transform="translate(209,192)"/>
<path d="M0 0 C0.33 1.32 0.66 2.64 1 4 C0.34 4.66 -0.32 5.32 -1 6 C-1.433125 7.2065625 -1.433125 7.2065625 -1.875 8.4375 C-3.14106224 11.32130844 -4.37684406 12.3386679 -7 14 C-7.66 13.67 -8.32 13.34 -9 13 C-6.03 8.71 -3.06 4.42 0 0 Z " fill="#3B9147" transform="translate(326,248)"/>
<path d="M0 0 C0 0.66 0 1.32 0 2 C0.66 2 1.32 2 2 2 C0.91926148 4.16147703 -0.19363264 5.41039672 -2 7 C-2.66 7 -3.32 7 -4 7 C-4.99 4.69 -5.98 2.38 -7 0 C-3.98968256 -0.93423645 -3.13349732 -1.04449911 0 0 Z " fill="#047839" transform="translate(470,1)"/>
<path d="M0 0 C2.26562673 2.26562673 2.94462749 3.84160705 3.09765625 7.04296875 C3.06510417 9.02864583 3.03255208 11.01432292 3 13 C3.66 13 4.32 13 5 13 C5 14.98 5 16.96 5 19 C1.51318899 15.51318899 0.20121013 10.4925418 -0.19140625 5.62890625 C-0.18805976 3.75152269 -0.10225091 1.87459995 0 0 Z " fill="#78C943" transform="translate(0,461)"/>
<path d="M0 0 C0.33 0 0.66 0 1 0 C1.02689216 1.47906892 1.04634621 2.95827483 1.0625 4.4375 C1.07410156 5.26121094 1.08570312 6.08492188 1.09765625 6.93359375 C1 9 1 9 0 10 C0.0825 10.928125 0.165 11.85625 0.25 12.8125 C0 16 0 16 -2.515625 18.19921875 C-3.33546875 18.79347656 -4.1553125 19.38773437 -5 20 C-3.33333333 13.33333333 -1.66666667 6.66666667 0 0 Z " fill="#6EBA53" transform="translate(104,253)"/>
<path d="M0 0 C2.31 0.33 4.62 0.66 7 1 C7.66 3.31 8.32 5.62 9 8 C7.68 8 6.36 8 5 8 C5 7.01 5 6.02 5 5 C3.35 4.67 1.7 4.34 0 4 C0 2.68 0 1.36 0 0 Z " fill="#5EC822" transform="translate(16,487)"/>
<path d="M0 0 C2.45862401 -0.05383848 4.9160755 -0.09359038 7.375 -0.125 C8.42300781 -0.15013672 8.42300781 -0.15013672 9.4921875 -0.17578125 C11.32897486 -0.19344267 13.16601963 -0.10303261 15 0 C15.66 0.66 16.32 1.32 17 2 C15.41058594 2.09087891 15.41058594 2.09087891 13.7890625 2.18359375 C12.40102779 2.26800127 11.01300768 2.35264917 9.625 2.4375 C8.92632812 2.47681641 8.22765625 2.51613281 7.5078125 2.55664062 C3.62639508 2.74280134 3.62639508 2.74280134 0 4 C0 2.68 0 1.36 0 0 Z " fill="#54B134" transform="translate(105,253)"/>
<path d="M0 0 C-1.68970089 3.66398299 -3.87300211 6.90832572 -6.125 10.25 C-6.84945313 11.32765625 -7.57390625 12.4053125 -8.3203125 13.515625 C-8.87460937 14.33546875 -9.42890625 15.1553125 -10 16 C-11 13 -11 13 -9.6875 10.3125 C-9.130625 9.549375 -8.57375 8.78625 -8 8 C-7.34 8 -6.68 8 -6 8 C-5.8453125 6.576875 -5.8453125 6.576875 -5.6875 5.125 C-4.89960329 1.54365133 -3.89650761 0 0 0 Z " fill="#3B8E47" transform="translate(325,208)"/>
<path d="M0 0 C3.93544623 1.31181541 5.74938163 3.95958727 8.14453125 7.1484375 C9.22877115 9.49514852 8.85573613 10.61653863 8 13 C6.68 12.67 5.36 12.34 4 12 C3.87882812 11.36191406 3.75765625 10.72382813 3.6328125 10.06640625 C3.46523438 9.24011719 3.29765625 8.41382813 3.125 7.5625 C2.96257812 6.73878906 2.80015625 5.91507813 2.6328125 5.06640625 C2.42398437 4.38449219 2.21515625 3.70257812 2 3 C1.34 2.67 0.68 2.34 0 2 C0 1.34 0 0.68 0 0 Z " fill="#0C673C" transform="translate(486,10)"/>
<path d="M0 0 C0.66 0.33 1.32 0.66 2 1 C1.3125 3.375 1.3125 3.375 0 6 C-2.5 7.125 -2.5 7.125 -5 8 C-5.99 9.485 -5.99 9.485 -7 11 C-7.66 10.67 -8.32 10.34 -9 10 C-7.87970983 8.51726301 -6.75361382 7.03891114 -5.625 5.5625 C-4.99851562 4.73878906 -4.37203125 3.91507812 -3.7265625 3.06640625 C-2 1 -2 1 0 0 Z " fill="#369242" transform="translate(310,274)"/>
<path d="M0 0 C4.29 0.99 8.58 1.98 13 3 C13.33 4.32 13.66 5.64 14 7 C8.39958947 6.57996921 4.411509 4.31423011 0 1 C0 0.67 0 0.34 0 0 Z " fill="#7ABE53" transform="translate(18,493)"/>
<path d="M0 0 C0 3.35279018 -0.35469584 5.08332445 -2 8 C-5.125 9.3125 -5.125 9.3125 -8 10 C-7.8125 7.625 -7.8125 7.625 -7 5 C-4.4375 3.6875 -4.4375 3.6875 -2 3 C-2 2.34 -2 1.68 -2 1 C-1.34 0.67 -0.68 0.34 0 0 Z " fill="#258D35" transform="translate(335,240)"/>
<path d="M0 0 C0.33 0 0.66 0 1 0 C1.08703823 3.43734063 1.14040272 6.87439837 1.1875 10.3125 C1.21263672 11.28896484 1.23777344 12.26542969 1.26367188 13.27148438 C1.27333984 14.20927734 1.28300781 15.14707031 1.29296875 16.11328125 C1.3086792 16.97735596 1.32438965 17.84143066 1.34057617 18.73168945 C0.93240678 21.45018536 0.10407096 22.30363829 -2 24 C-1.835 22.989375 -1.67 21.97875 -1.5 20.9375 C-0.77253557 15.34006538 -0.97374577 9.7280028 -1.0625 4.09765625 C-1 1 -1 1 0 0 Z " fill="#54A44E" transform="translate(210,188)"/>
<path d="M0 0 C4.61766091 4.49614352 7.16478351 7.16776641 7.625 13.6875 C7.69976562 14.68136719 7.77453125 15.67523438 7.8515625 16.69921875 C7.90054687 17.45847656 7.94953125 18.21773437 8 19 C5.73083187 15.5962478 5.32979145 13.01789311 4.66015625 9.05859375 C4.1162933 6.6276414 4.1162933 6.6276414 1 5 C0.3125 2.375 0.3125 2.375 0 0 Z " fill="#4D9859" transform="translate(328,175)"/>
<path d="M0 0 C0.66 0.66 1.32 1.32 2 2 C-0.31883213 6.50884026 -3.06451569 8.93906776 -7 12 C-6.67 9.69 -6.34 7.38 -6 5 C-5.01 4.67 -4.02 4.34 -3 4 C-1.31461399 2.00334686 -1.31461399 2.00334686 0 0 Z " fill="#167D3B" transform="translate(421,255)"/>
<path d="M0 0 C2.31 1.65 4.62 3.3 7 5 C4 6 4 6 0 6 C-0.99 7.485 -0.99 7.485 -2 9 C-2.99 8.67 -3.98 8.34 -5 8 C-3.35 5.36 -1.7 2.72 0 0 Z " fill="#297B4C" transform="translate(450,202)"/>
<path d="M0 0 C1.32 0.33 2.64 0.66 4 1 C2.68139111 5.61513112 0.78644563 9.09897612 -2 13 C-2.33 12.01 -2.66 11.02 -3 10 C-2.34 9.34 -1.68 8.68 -1 8 C-0.54188325 6.02764667 -0.54188325 6.02764667 -0.375 3.875 C-0.25125 2.59625 -0.1275 1.3175 0 0 Z " fill="#57AD40" transform="translate(140,210)"/>
<path d="M0 0 C0.33 0 0.66 0 1 0 C1.33 3.63 1.66 7.26 2 11 C1.34 11 0.68 11 0 11 C-0.66 12.32 -1.32 13.64 -2 15 C-2.19392201 9.47322267 -1.7479503 5.24385089 0 0 Z " fill="#79CD46" transform="translate(2,24)"/>
<path d="M0 0 C0.33 1.32 0.66 2.64 1 4 C0.401875 4.103125 -0.19625 4.20625 -0.8125 4.3125 C-3.09240718 4.82969347 -3.09240718 4.82969347 -4.5 6.625 C-4.995 7.07875 -5.49 7.5325 -6 8 C-8.1875 7.6875 -8.1875 7.6875 -10 7 C-6.87378374 3.60582235 -4.43458973 1.3937282 0 0 Z " fill="#3B993F" transform="translate(285,311)"/>
<path d="M0 0 C0.33 0 0.66 0 1 0 C1.5683665 12.01989891 1.5683665 12.01989891 -2 16 C-2.66 16 -3.32 16 -4 16 C-2.68 10.72 -1.36 5.44 0 0 Z " fill="#E4FBD6" transform="translate(35,280)"/>
<path d="M0 0 C1.26823485 3.65393537 0.75715321 6.49070026 0.0625 10.25 C-0.13214844 11.32765625 -0.32679687 12.4053125 -0.52734375 13.515625 C-0.68332031 14.33546875 -0.83929688 15.1553125 -1 16 C-1.66 16 -2.32 16 -3 16 C-3.33 16.66 -3.66 17.32 -4 18 C-3.41632611 11.69632197 -1.95928381 6.01339937 0 0 Z " fill="#E0F8CF" transform="translate(40,262)"/>
<path d="M0 0 C0.33 0 0.66 0 1 0 C1.35338623 2.96844435 1.5417682 5.15598218 -0.11328125 7.734375 C-1.35503168 9.20348819 -2.67337918 10.60704814 -4 12 C-4.95582656 9.44345185 -5.17802782 8.39658231 -4.0390625 5.859375 C-3.57242187 5.16328125 -3.10578125 4.4671875 -2.625 3.75 C-1.93277344 2.69039062 -1.93277344 2.69039062 -1.2265625 1.609375 C-0.82179688 1.07828125 -0.41703125 0.5471875 0 0 Z " fill="#237B47" transform="translate(436,225)"/>
<path d="M0 0 C6.19518473 0.41588046 11.26689311 1.60251894 17 4 C17 4.33 17 4.66 17 5 C15.33388095 5.042721 13.66617115 5.04063832 12 5 C11.67 4.67 11.34 4.34 11 4 C9.906875 3.87625 8.81375 3.7525 7.6875 3.625 C4.08900247 3.01508516 2.62451727 2.41455588 0 0 Z " fill="#E5FADE" transform="translate(168,160)"/>
<path d="M0 0 C1.98 0.66 3.96 1.32 6 2 C6 2.66 6 3.32 6 4 C6.9590625 4.433125 6.9590625 4.433125 7.9375 4.875 C10 6 10 6 11 8 C9.35 7.67 7.7 7.34 6 7 C6 6.34 6 5.68 6 5 C4.35 4.67 2.7 4.34 1 4 C0.67 2.68 0.34 1.36 0 0 Z " fill="#3E8662" transform="translate(475,2)"/>
<path d="M0 0 C1.32 0.66 2.64 1.32 4 2 C4 6 4 6 2.5 7.75 C1.7575 8.36875 1.7575 8.36875 1 9 C1 7.35 1 5.7 1 4 C0.34 4 -0.32 4 -1 4 C-0.67 2.68 -0.34 1.36 0 0 Z " fill="#218A39" transform="translate(346,310)"/>
<path d="M0 0 C0.33 0 0.66 0 1 0 C1.72032918 6.60301748 0.33168656 9.83001627 -3.4921875 15.21484375 C-5 17 -5 17 -7 18 C-6.67 16.68 -6.34 15.36 -6 14 C-5.34 14 -4.68 14 -4 14 C-4 13.01 -4 12.02 -4 11 C-3.34 11 -2.68 11 -2 11 C-1.34 7.37 -0.68 3.74 0 0 Z " fill="#E5FBE0" transform="translate(199,296)"/>
<path d="M0 0 C0.75 1.625 0.75 1.625 1 4 C-1.05137856 8.27370534 -2.24771647 9.7241627 -6.75 11.375 C-7.8225 11.58125 -8.895 11.7875 -10 12 C-7.7897808 9.7897808 -5.57498677 7.59475483 -3.3125 5.4375 C-0.81433824 3.14889706 -0.81433824 3.14889706 0 0 Z " fill="#E4FAD7" transform="translate(30,296)"/>
<path d="M0 0 C0.33 0 0.66 0 1 0 C1.309375 1.134375 1.61875 2.26875 1.9375 3.4375 C2.62924531 6.78775099 2.62924531 6.78775099 4 8 C5.67884238 8.3931648 7.36850045 8.74085452 9.0625 9.0625 C9.98160156 9.23910156 10.90070313 9.41570312 11.84765625 9.59765625 C12.55792969 9.73042969 13.26820313 9.86320312 14 10 C10.95240395 11.01586535 9.54906747 11.00433442 6.4375 10.625 C5.65246094 10.53476562 4.86742187 10.44453125 4.05859375 10.3515625 C2 10 2 10 0 9 C0 6.03 0 3.06 0 0 Z " fill="#E3FCDE" transform="translate(185,285)"/>
<path d="M0 0 C1.81242052 -0.02687279 3.62495233 -0.04633715 5.4375 -0.0625 C6.44683594 -0.07410156 7.45617187 -0.08570313 8.49609375 -0.09765625 C11 0 11 0 12 1 C12.07226502 2.85287502 12.0838122 4.70833878 12.0625 6.5625 C12.05347656 7.57441406 12.04445312 8.58632813 12.03515625 9.62890625 C12.02355469 10.41136719 12.01195312 11.19382812 12 12 C11.01 12.495 11.01 12.495 10 13 C10 9.7 10 6.4 10 3 C6.7 2.34 3.4 1.68 0 1 C0 0.67 0 0.34 0 0 Z " fill="#68B15E" transform="translate(189,293)"/>
<path d="M0 0 C0.99 0.33 1.98 0.66 3 1 C3 1.66 3 2.32 3 3 C2.01 3 1.02 3 0 3 C0 3.99 0 4.98 0 6 C0.66 6 1.32 6 2 6 C2.33 5.34 2.66 4.68 3 4 C2.67 5.32 2.34 6.64 2 8 C0.35 7.67 -1.3 7.34 -3 7 C-2.67 5.35 -2.34 3.7 -2 2 C-1.34 2 -0.68 2 0 2 C0 1.34 0 0.68 0 0 Z " fill="#158038" transform="translate(405,279)"/>
<path d="M0 0 C0.33 0.66 0.66 1.32 1 2 C1.66 2 2.32 2 3 2 C3 2.66 3 3.32 3 4 C3.61875 3.79375 4.2375 3.5875 4.875 3.375 C5.926875 3.189375 5.926875 3.189375 7 3 C7.66 3.66 8.32 4.32 9 5 C8.34 5 7.68 5 7 5 C6.67 6.32 6.34 7.64 6 9 C4 7.6875 4 7.6875 2 6 C2 5.01 2 4.02 2 3 C1.34 3 0.68 3 0 3 C0 2.01 0 1.02 0 0 Z " fill="#5FC922" transform="translate(7,478)"/>
<path d="M0 0 C-2.475 1.485 -2.475 1.485 -5 3 C-3.68 3.66 -2.36 4.32 -1 5 C-3 6 -3 6 -5.1640625 5.44140625 C-5.97617188 5.15136719 -6.78828125 4.86132812 -7.625 4.5625 C-8.44226563 4.27503906 -9.25953125 3.98757812 -10.1015625 3.69140625 C-10.72804687 3.46324219 -11.35453125 3.23507813 -12 3 C-3.11538462 -1.55769231 -3.11538462 -1.55769231 0 0 Z " fill="#63A957" transform="translate(182,238)"/>
<path d="M0 0 C1.953125 0.4921875 1.953125 0.4921875 4 2 C4.46588547 4.82517725 4.69615501 7.29079561 4.75 10.125 C4.77964844 10.87910156 4.80929688 11.63320312 4.83984375 12.41015625 C4.91057932 14.27285953 4.95754983 16.13643755 5 18 C4.67 18 4.34 18 4 18 C3.81824219 16.67935547 3.81824219 16.67935547 3.6328125 15.33203125 C3.46523437 14.17058594 3.29765625 13.00914062 3.125 11.8125 C2.96257812 10.66394531 2.80015625 9.51539063 2.6328125 8.33203125 C2.05939755 5.31275375 1.25240957 2.79424152 0 0 Z " fill="#D5F5D2" transform="translate(227,179)"/>
<path d="M0 0 C0 3 0 3 -1.640625 4.70703125 C-4.65787068 6.36052185 -6.36886615 6.13026753 -9.75 5.6875 C-10.73484375 5.56761719 -11.7196875 5.44773437 -12.734375 5.32421875 C-13.85585938 5.16373047 -13.85585938 5.16373047 -15 5 C-15 4.67 -15 4.34 -15 4 C-14.08476562 3.87882812 -13.16953125 3.75765625 -12.2265625 3.6328125 C-11.03804688 3.46523438 -9.84953125 3.29765625 -8.625 3.125 C-7.44164062 2.96257812 -6.25828125 2.80015625 -5.0390625 2.6328125 C-1.90433341 2.2697415 -1.90433341 2.2697415 0 0 Z " fill="#1D853A" transform="translate(376,319)"/>
<path d="M0 0 C0.66 0.33 1.32 0.66 2 1 C1.34 2.98 0.68 4.96 0 7 C-0.99 7 -1.98 7 -3 7 C-3.33 7.99 -3.66 8.98 -4 10 C-4.66 10 -5.32 10 -6 10 C-4.34832443 6.4213696 -2.21713508 3.25179812 0 0 Z " fill="#3B9343" transform="translate(300,286)"/>
<path d="M0 0 C2.97 0.495 2.97 0.495 6 1 C6.33 1.99 6.66 2.98 7 4 C2.25 5.125 2.25 5.125 0 4 C0 2.68 0 1.36 0 0 Z " fill="#3CA92D" transform="translate(193,288)"/>
<path d="M0 0 C0.433125 0.495 0.86625 0.99 1.3125 1.5 C2.99740483 3.33218192 2.99740483 3.33218192 6 3 C6 4.98 6 6.96 6 9 C5.01 9 4.02 9 3 9 C0.50022457 5.66696609 0 4.26696398 0 0 Z " fill="#178138" transform="translate(401,222)"/>
<path d="M0 0 C0.33 0 0.66 0 1 0 C1.19055047 4.76376184 1.07190488 8.64899976 -1 13 C-3.125 13.875 -3.125 13.875 -5 14 C-4.34 13.01 -3.68 12.02 -3 11 C-2.36921661 8.79158062 -2.36921661 8.79158062 -1.9375 6.4375 C-1.46509229 4.05984465 -1.08564836 2.17129671 0 0 Z " fill="#167145" transform="translate(494,188)"/>
<path d="M0 0 C1.98 0 3.96 0 6 0 C6 0.66 6 1.32 6 2 C0.555 3.485 0.555 3.485 -5 5 C-5 4.34 -5 3.68 -5 3 C-3.68 3 -2.36 3 -1 3 C-0.67 2.01 -0.34 1.02 0 0 Z " fill="#4C8C6B" transform="translate(473,495)"/>
<path d="M0 0 C-10.37357631 3.62870159 -10.37357631 3.62870159 -16 2 C-16 1.67 -16 1.34 -16 1 C-14.0852312 0.63571223 -12.16807707 0.28394694 -10.25 -0.0625 C-9.18265625 -0.25972656 -8.1153125 -0.45695312 -7.015625 -0.66015625 C-4.25228095 -0.97156937 -2.59053383 -0.8991416 0 0 Z " fill="#5EAE4E" transform="translate(178,323)"/>
<path d="M0 0 C0.33 0 0.66 0 1 0 C1.07347656 1.08667969 1.07347656 1.08667969 1.1484375 2.1953125 C1.55206152 7.41458867 2.01275807 12.09813658 4 17 C3.34 17 2.68 17 2 17 C2 16.34 2 15.68 2 15 C1.34 15 0.68 15 0 15 C-1.5111995 9.96266834 -0.64599773 5.11828973 0 0 Z " fill="#63B34A" transform="translate(123,293)"/>
<path d="M0 0 C0.33 0 0.66 0 1 0 C2.20568053 4.67201205 2.09382426 9.21496292 2 14 C1.690625 13.360625 1.38125 12.72125 1.0625 12.0625 C0.1654837 10.06389179 0.1654837 10.06389179 -1 9 C-0.91062197 7.47480724 -0.75462854 5.95318071 -0.5625 4.4375 C-0.46066406 3.61121094 -0.35882813 2.78492188 -0.25390625 1.93359375 C-0.17011719 1.29550781 -0.08632813 0.65742188 0 0 Z " fill="#32893F" transform="translate(341,252)"/>
<path d="M0 0 C0.66 0 1.32 0 2 0 C1.690625 0.886875 1.38125 1.77375 1.0625 2.6875 C0.1709329 5.46709155 -0.49377007 8.13136375 -1 11 C-1.33 11 -1.66 11 -2 11 C-2 9.35 -2 7.7 -2 6 C-2.66 5.67 -3.32 5.34 -4 5 C-2.71937515 3.2925002 -1.38232443 1.62626404 0 0 Z " fill="#137F35" transform="translate(412,209)"/>
<path d="M0 0 C-0.99 1.32 -1.98 2.64 -3 4 C-4.65 3.67 -6.3 3.34 -8 3 C-8 2.01 -8 1.02 -8 0 C-5.13822943 -1.43088528 -3.06624227 -0.59991697 0 0 Z " fill="#107840" transform="translate(482,492)"/>
<path d="M0 0 C0.66 0 1.32 0 2 0 C2 0.99 2 1.98 2 3 C1.01 3 0.02 3 -1 3 C-0.67 5.97 -0.34 8.94 0 12 C-0.99 11.01 -1.98 10.02 -3 9 C-2.66666667 2.66666667 -2.66666667 2.66666667 0 0 Z " fill="#D8F8C7" transform="translate(18,308)"/>
<path d="M0 0 C0.66 0 1.32 0 2 0 C0.54955729 4.10958767 -1.51110752 7.43258745 -4 11 C-5 8 -5 8 -3.6875 4.9375 C-2 2 -2 2 0 0 Z " fill="#E0F8E9" transform="translate(389,300)"/>
<path d="M0 0 C2.50037734 2.17424117 3.43628586 3.73045798 4 7 C2.02 7.99 2.02 7.99 0 9 C-1.15941038 5.52176885 -0.70820884 3.54104422 0 0 Z " fill="#5AC824" transform="translate(25,291)"/>
<path d="M0 0 C0.99 0 1.98 0 3 0 C3 0.99 3 1.98 3 3 C-0.4352048 5.29013653 -1.985331 5.17842973 -6 5 C-5.67 4.34 -5.34 3.68 -5 3 C-2.4375 2.375 -2.4375 2.375 0 2 C0 1.34 0 0.68 0 0 Z " fill="#49AA35" transform="translate(178,321)"/>
<path d="M0 0 C0.33 0 0.66 0 1 0 C1 1.98 1 3.96 1 6 C2.32 6.66 3.64 7.32 5 8 C3.68 9.65 2.36 11.3 1 13 C-0.10228696 8.59085217 -0.07654536 4.51617599 0 0 Z " fill="#48924F" transform="translate(298,233)"/>
<path d="M0 0 C1.00698122 4.02792488 0.86376936 5.79078668 0.0625 9.75 C-0.13214844 10.73484375 -0.32679687 11.7196875 -0.52734375 12.734375 C-0.68332031 13.48203125 -0.83929688 14.2296875 -1 15 C-1.99 15.33 -2.98 15.66 -4 16 C-2.68 10.72 -1.36 5.44 0 0 Z " fill="#E1F9D1" transform="translate(53,216)"/>
<path d="M0 0 C2.72524641 2.60675744 3.96267007 3.92191153 4.09765625 7.8203125 C4.08605469 8.91085938 4.07445312 10.00140625 4.0625 11.125 C4.05347656 12.22070312 4.04445313 13.31640625 4.03515625 14.4453125 C4.02355469 15.28835937 4.01195312 16.13140625 4 17 C3.67 17 3.34 17 3 17 C2.92652344 15.84371094 2.92652344 15.84371094 2.8515625 14.6640625 C2.77679688 13.66117188 2.70203125 12.65828125 2.625 11.625 C2.55539063 10.62726563 2.48578125 9.62953125 2.4140625 8.6015625 C2.23636036 5.84491121 2.23636036 5.84491121 0 4 C0 2.68 0 1.36 0 0 Z " fill="#6EBB4A" transform="translate(58,171)"/>
<path d="M0 0 C0.12375 0.94875 0.2475 1.8975 0.375 2.875 C0.71687177 6.08667191 0.71687177 6.08667191 3 8 C0 8 0 8 -1.38671875 6.6875 C-2.59114583 5.125 -3.79557292 3.5625 -5 2 C-1.125 0 -1.125 0 0 0 Z " fill="#53AB49" transform="translate(202,169)"/>
<path d="M0 0 C0.33 0 0.66 0 1 0 C1.21192221 5.19209404 0.5912689 9.126739 -1 14 C-1.33 14 -1.66 14 -2 14 C-2.1799928 8.78020872 -1.97094808 4.92737019 0 0 Z " fill="#68BC41" transform="translate(49,223)"/>
<path d="M0 0 C0.66 0.33 1.32 0.66 2 1 C1.67 2.98 1.34 4.96 1 7 C0.34 7 -0.32 7 -1 7 C-1.33 7.99 -1.66 8.98 -2 10 C-3.06351675 6.61608307 -3.21442982 5.4195366 -1.5625 2.1875 C-1.046875 1.465625 -0.53125 0.74375 0 0 Z " fill="#46A53B" transform="translate(205,217)"/>
<path d="M0 0 C0.99 0 1.98 0 3 0 C2.125 4.75 2.125 4.75 1 7 C0.34 7 -0.32 7 -1 7 C-1.625 4.625 -1.625 4.625 -2 2 C-1.34 1.34 -0.68 0.68 0 0 Z " fill="#1C7E40" transform="translate(413,212)"/>
<path d="M0 0 C0.66 0 1.32 0 2 0 C1.814375 1.051875 1.62875 2.10375 1.4375 3.1875 C1.04920669 6.57119882 1.11752515 8.76425888 2 12 C0.5 10.9375 0.5 10.9375 -1 9 C-1.43076923 2.86153846 -1.43076923 2.86153846 0 0 Z " fill="#DBF8E0" transform="translate(324,161)"/>
<path d="M0 0 C1.65 0.33 3.3 0.66 5 1 C4.34 2.32 3.68 3.64 3 5 C1.02 4.34 -0.96 3.68 -3 3 C-2.01 2.67 -1.02 2.34 0 2 C0 1.34 0 0.68 0 0 Z " fill="#53B72F" transform="translate(99,321)"/>
<path d="M0 0 C0.66 0.33 1.32 0.66 2 1 C1.51178906 5.29625631 0.70705488 7.6615409 -2 11 C-1.85957123 9.35369672 -1.71250671 7.70795821 -1.5625 6.0625 C-1.48128906 5.14597656 -1.40007812 4.22945313 -1.31640625 3.28515625 C-1 1 -1 1 0 0 Z " fill="#55B532" transform="translate(100,272)"/>
<path d="M0 0 C0.66 0 1.32 0 2 0 C0.66511872 3.59391114 -0.96022723 6.75490696 -3 10 C-3.75 8.375 -3.75 8.375 -4 6 C-2.1875 2.75 -2.1875 2.75 0 0 Z " fill="#DEF8E7" transform="translate(429,233)"/>
<path d="M0 0 C1 4 1 4 1 7 C-1 8.6875 -1 8.6875 -3 10 C-3.66 9.67 -4.32 9.34 -5 9 C-3.35 6.03 -1.7 3.06 0 0 Z " fill="#DFF7E9" transform="translate(410,224)"/>
<path d="M0 0 C0.66 0.33 1.32 0.66 2 1 C1.34 1.66 0.68 2.32 0 3 C-0.40047444 5.32275177 -0.7397104 7.65739357 -1 10 C-1.66 9.67 -2.32 9.34 -3 9 C-3.36923077 3.46153846 -3.36923077 3.46153846 -1.5 1.125 C-1.005 0.75375 -0.51 0.3825 0 0 Z " fill="#117A39" transform="translate(440,222)"/>
<path d="M0 0 C1.19156292 4.76625167 0.3415946 5.87879351 -2 10 C-2.99 9.67 -3.98 9.34 -5 9 C-3.35 6.03 -1.7 3.06 0 0 Z " fill="#DDF4E3" transform="translate(431,187)"/>
<path d="M0 0 C1.71017726 2.5652659 2.90417811 4.87960965 4.125 7.6875 C4.47820312 8.49574219 4.83140625 9.30398438 5.1953125 10.13671875 C5.46085938 10.75160156 5.72640625 11.36648438 6 12 C4.68 11.67 3.36 11.34 2 11 C0.80712589 7.12315913 0 4.08378077 0 0 Z " fill="#54A252" transform="translate(247,306)"/>
<path d="M0 0 C1.98 0 3.96 0 6 0 C5.34 0.66 4.68 1.32 4 2 C5.32 2.66 6.64 3.32 8 4 C5.03 3.67 2.06 3.34 -1 3 C-0.67 2.01 -0.34 1.02 0 0 Z " fill="#DBF1D5" transform="translate(168,239)"/>
<path d="M0 0 C2 1.375 2 1.375 4 3 C4 3.66 4 4.32 4 5 C2.02 5 0.04 5 -2 5 C-2 2 -2 2 0 0 Z " fill="#0A7537" transform="translate(459,211)"/>
<path d="M0 0 C0.66 0 1.32 0 2 0 C1.25 6.75 1.25 6.75 -1 9 C-1.66 8.67 -2.32 8.34 -3 8 C-3 7.01 -3 6.02 -3 5 C-2.34 5 -1.68 5 -1 5 C-0.67 3.35 -0.34 1.7 0 0 Z " fill="#5CBE2E" transform="translate(59,184)"/>
<path d="M0 0 C0.66 0.33 1.32 0.66 2 1 C-0.83430453 4.2542015 -2.68607774 5.5206753 -7 6 C-2.25 1.125 -2.25 1.125 0 0 Z " fill="#E1F9EC" transform="translate(453,161)"/>
<path d="M0 0 C3.63 0.66 7.26 1.32 11 2 C11 2.33 11 2.66 11 3 C7.37 3 3.74 3 0 3 C0 2.01 0 1.02 0 0 Z " fill="#60AC49" transform="translate(139,321)"/>
<path d="M0 0 C0.33 1.32 0.66 2.64 1 4 C0.01 5.485 0.01 5.485 -1 7 C-1.66 7 -2.32 7 -3 7 C-3 7.66 -3 8.32 -3 9 C-3.66 8.67 -4.32 8.34 -5 8 C-3.35 5.36 -1.7 2.72 0 0 Z " fill="#33854E" transform="translate(408,272)"/>
<path d="M0 0 C0 3.69418201 -1.28179295 5.77836178 -3 9 C-3.99 8.67 -4.98 8.34 -6 8 C-4.02 5.36 -2.04 2.72 0 0 Z " fill="#D9F4DC" transform="translate(306,236)"/>
<path d="M0 0 C1.32 0 2.64 0 4 0 C2.75023244 3.65316671 2.32901247 4.78065836 -1 7 C-0.67 4.69 -0.34 2.38 0 0 Z " fill="#3C9343" transform="translate(305,231)"/>
<path d="M0 0 C0.66 0.33 1.32 0.66 2 1 C-0.475 4.465 -0.475 4.465 -3 8 C-4 5 -4 5 -3.1875 2.875 C-2 1 -2 1 0 0 Z " fill="#368C45" transform="translate(333,194)"/>
<path d="M0 0 C0.99 0 1.98 0 3 0 C3 2.31 3 4.62 3 7 C2.01 6.67 1.02 6.34 0 6 C0 4.02 0 2.04 0 0 Z " fill="#1F9132" transform="translate(329,181)"/>
<path d="M0 0 C3.63 0 7.26 0 11 0 C11.33 0.99 11.66 1.98 12 3 C10.68 3 9.36 3 8 3 C8 2.34 8 1.68 8 1 C5.36 1 2.72 1 0 1 C0 0.67 0 0.34 0 0 Z " fill="#49A933" transform="translate(158,156)"/>
<path d="M0 0 C1.485 0.99 1.485 0.99 3 2 C3.1875 5.125 3.1875 5.125 3 8 C2.01 7.67 1.02 7.34 0 7 C0 4.69 0 2.38 0 0 Z " fill="#0C6639" transform="translate(496,26)"/>
<path d="M0 0 C0.33 0.66 0.66 1.32 1 2 C0.34 2.66 -0.32 3.32 -1 4 C-1.33 4.66 -1.66 5.32 -2 6 C-4.0625 7.125 -4.0625 7.125 -6 8 C-4.73058503 4.08597051 -3.48832306 2.20927127 0 0 Z " fill="#78C743" transform="translate(9,16)"/>
<path d="M0 0 C0.66 0 1.32 0 2 0 C2 0.99 2 1.98 2 3 C2.99 3 3.98 3 5 3 C4.01 4.485 4.01 4.485 3 6 C1.68 5.67 0.36 5.34 -1 5 C-0.67 3.35 -0.34 1.7 0 0 Z " fill="#0F7A37" transform="translate(427,241)"/>
<path d="M0 0 C0.99 0 1.98 0 3 0 C3 1.65 3 3.3 3 5 C2.01 5.33 1.02 5.66 0 6 C-0.66 4.68 -1.32 3.36 -2 2 C-1.34 2 -0.68 2 0 2 C0 1.34 0 0.68 0 0 Z " fill="#41A72E" transform="translate(189,234)"/>
<path d="M0 0 C0 0.99 0 1.98 0 3 C-3 5 -3 5 -5.1875 4.625 C-5.785625 4.41875 -6.38375 4.2125 -7 4 C-4.61426621 2.10786631 -2.92824652 0.97608217 0 0 Z " fill="#7AC04F" transform="translate(25,2)"/>
<path d="M0 0 C0 0.66 0 1.32 0 2 C-1.32 2 -2.64 2 -4 2 C-4.33 2.66 -4.66 3.32 -5 4 C-5.66 2.68 -6.32 1.36 -7 0 C-3.98968256 -0.93423645 -3.13349732 -1.04449911 0 0 Z " fill="#0E703B" transform="translate(470,1)"/>
<path d="M0 0 C0.33 0.66 0.66 1.32 1 2 C0.22265625 3.7265625 0.22265625 3.7265625 -0.9375 5.625 C-1.618125 6.73875 -2.29875 7.8525 -3 9 C-3.99 8.67 -4.98 8.34 -6 8 C-4.02 5.36 -2.04 2.72 0 0 Z " fill="#48974E" transform="translate(288,303)"/>
<path d="M0 0 C0.33 0 0.66 0 1 0 C1.66 3.63 2.32 7.26 3 11 C0.9375 9.4375 0.9375 9.4375 -1 7 C-0.75 3.25 -0.75 3.25 0 0 Z " fill="#459759" transform="translate(347,301)"/>
<path d="M0 0 C0.66 0 1.32 0 2 0 C2 2.31 2 4.62 2 7 C1.01 7 0.02 7 -1 7 C-0.67 4.69 -0.34 2.38 0 0 Z " fill="#278836" transform="translate(345,298)"/>
<path d="M0 0 C0.66 0 1.32 0 2 0 C1.34 2.31 0.68 4.62 0 7 C-0.66 7 -1.32 7 -2 7 C-1.125 1.125 -1.125 1.125 0 0 Z " fill="#289331" transform="translate(302,286)"/>
<path d="M0 0 C0.33 0.66 0.66 1.32 1 2 C-1 5 -1 5 -3.625 5.6875 C-4.800625 5.8421875 -4.800625 5.8421875 -6 6 C-6 5.34 -6 4.68 -6 4 C-5.34 4 -4.68 4 -4 4 C-4 3.34 -4 2.68 -4 2 C-2.68 1.34 -1.36 0.68 0 0 Z " fill="#259035" transform="translate(317,267)"/>
<path d="M0 0 C0.33 0.99 0.66 1.98 1 3 C-0.65 4.65 -2.3 6.3 -4 8 C-4.66 7.67 -5.32 7.34 -6 7 C-4.02 4.69 -2.04 2.38 0 0 Z " fill="#D4F2DF" transform="translate(445,167)"/>
<path d="M0 0 C2.31 0 4.62 0 7 0 C6.67 0.99 6.34 1.98 6 3 C5.34 3 4.68 3 4 3 C3.67 3.66 3.34 4.32 3 5 C2.34 4.67 1.68 4.34 1 4 C0.375 1.9375 0.375 1.9375 0 0 Z " fill="#0C7636" transform="translate(441,161)"/>
<path d="M0 0 C1.32 0 2.64 0 4 0 C3.67 1.65 3.34 3.3 3 5 C2.01 5 1.02 5 0 5 C0 3.35 0 1.7 0 0 Z " fill="#238F34" transform="translate(324,154)"/>
<path d="M0 0 C2.50298434 2.93828597 3.46930939 5.17902761 4 9 C0.06153846 5.67692308 0.06153846 5.67692308 -0.25 2.25 C-0.1675 1.5075 -0.085 0.765 0 0 Z " fill="#81B39D" transform="translate(495,19)"/>
</svg>
